<svg viewBox="0 0 800 800" xmlns="http://www.w3.org/2000/svg"><path d="M485.3329168765938,5.930026170717042 L485.3376708055199,-6.429277529204796 M485.3376708055199,-6.429277529204796 L503.2919340105311,6.701461041347557 M503.2919340105311,6.701461041347557 L515.2492748409811,21.916481966657443 M515.2492748409811,21.916481966657443 L520.5127214394358,38.332875925624194 M520.5127214394358,38.332875925624194 L518.7734618894989,54.997222882368874 M518.7734618894989,54.997222882368874 L510.12948843486555,70.94083261704088 M510.12948843486555,70.94083261704088 L495.0805904039065,85.23611285245613 M495.0805904039065,85.23611285245613 L474.499902967823,97.05068682821832 M474.499902967823,97.05068682821832 L449.5834946353758,105.6961482494819 M449.5834946353758,105.6961482494819 L421.78087241078475,110.66847045708892 M421.78087241078475,110.66847045708892 L392.710379247451,111.6776636526979 M392.710379247451,111.6776636526979 L364.06459268725956,108.66485803739295 M364.06459268725956,108.66485803739295 L337.51120777382914,101.80578666481256 M337.51120777382914,101.80578666481256 L314.59548738849156,91.50040899760427 M314.59548738849156,91.50040899760427 L296.6499449877984,78.34937715682008 M296.6499449877984,78.34937715682008 L284.7167687367974,63.118711904212546 M284.7167687367974,63.118711904212546 L279.4873946645831,46.694906490471 M279.4873946645831,46.694906490471 L281.26282909887396,30.033078822205766 M281.26282909887396,30.033078822205766 L289.9367925574636,14.10134198027049 M289.9367925574636,14.10134198027049 L305.0026253776907,-0.17543168812471777 M305.0026253776907,-0.17543168812471777 L325.58331282080934,-11.969105056940748 M325.58331282080934,-11.969105056940748 L350.4827863719811,-20.596059906109076 M350.4827863719811,-20.596059906109076 L378.2554185876264,-25.556509210141826 M378.2554185876264,-25.556509210141826 L407.2897368529451,-26.56318311148334 M407.2897368529451,-26.56318311148334 L435.9014508763645,-23.55778895989249 M435.9014508763645,-23.55778895989249 L462.430671212042,-16.714361918559348 M462.430671212042,-16.714361918559348 L485.3376708055199,-6.429277529204796 M485.3329168765938,5.930026170717042 L462.4271937649469,-4.3556433452008605 M462.4271937649469,-4.3556433452008605 L435.8994513664591,-11.199459773994704 M435.8994513664591,-11.199459773994704 L407.28933107277743,-14.205024945983837 M407.28933107277743,-14.205024945983837 L378.25663003264725,-13.19829375936365 M378.25663003264725,-13.19829375936365 L350.4855448939198,-8.237562193523786 M350.4855448939198,-8.237562193523786 L325.58745864687,0.3898834911670974 M325.58745864687,0.3898834911670974 L305.00791827094065,12.184227745519138 M305.00791827094065,12.184227745519138 L289.94292561823954,26.4618133621957 M289.94292561823954,26.4618133621957 L281.269446439326,42.39445602914304 M281.269446439326,42.39445602914304 L279.49411196703215,59.05723075727519 M279.49411196703215,59.05723075727519 L284.7231955292144,75.48196942585548 M284.7231955292144,75.48196942585548 L296.6557073570323,90.71349989042074 M296.6557073570323,90.71349989042074 L314.6002498039709,103.8652786154853 M314.6002498039709,103.8652786154853 L337.514692735395,114.17124143152864 M337.514692735395,114.17124143152864 L364.06659701807774,121.03070220873963 M364.06659701807774,121.03070220873963 L392.7107860505604,124.0436788525767 M392.7107860505604,124.0436788525767 L421.77965795639005,123.03442836892458 M421.77965795639005,123.03442836892458 L449.5807297611603,118.0618238864796 M449.5807297611603,118.0618238864796 L474.495748901813,109.41587160938309 M474.495748901813,109.41587160938309 L495.07528927070894,97.6006267251455 M495.07528927070894,97.6006267251455 L510.12334902181624,83.30453452113716 M510.12334902181624,83.30453452113716 L518.766841539675,67.36001894842195 M518.766841539675,67.36001894842195 L520.5060051599277,50.69472492904538 M520.5060051599277,50.69472492904538 L515.2428528694737,34.277397723374065 M515.2428528694737,34.277397723374065 L503.28617915576524,19.061511603276927 M503.28617915576524,19.061511603276927 L485.3329168765938,5.930026170717042 M318.6052829638679,101.56792134760269 L301.5016970234815,89.03308534357745 M301.5016970234815,89.03308534357745 L290.1279793048247,74.51588273023424 M290.1279793048247,74.51588273023424 L285.1432497853161,58.86121981504971 M285.1432497853161,58.86121981504971 L286.83455532939337,42.97945784785861 M286.83455532939337,42.97945784785861 L295.10079494315005,27.79338839997888 M295.10079494315005,27.79338839997888 L309.4592397920006,14.18465462712652 M309.4592397920006,14.18465462712652 L329.0741148173934,2.9427038233079656 M329.0741148173934,2.9427038233079656 L352.8054760683322,-5.280743903171242 M352.8054760683322,-5.280743903171242 L379.27546830892146,-10.009205438985191 M379.27546830892146,-10.009205438985191 L406.948065979397,-10.968801001126963 M406.948065979397,-10.968801001126963 L434.2178461837363,-8.10395766102863 M434.2178461837363,-8.10395766102863 L459.5026397572409,-1.580595073234349 M459.5026397572409,-1.580595073234349 L481.3348533055229,8.223385560203837 M481.3348533055229,8.223385560203837 L498.4463607552108,20.739786177721726 M498.4463607552108,20.739786177721726 L509.8420282714025,35.242776729774164 M509.8420282714025,35.242776729774164 L514.8577074331732,50.89070672220373 M514.8577074331732,50.89070672220373 L513.1992611977313,66.77475733208144 M513.1992611977313,66.77475733208144 L504.9602628930336,81.97161269220453 M504.9602628930336,81.97161269220453 L490.6172006852944,95.59715872036645 M490.6172006852944,95.59715872036645 L471.00232566570617,106.85809664383191 M471.00232566570617,106.85809664383191 L447.2555817802506,115.09835663446324 M447.2555817802506,115.09835663446324 L420.75834822648585,119.8376040871666 M420.75834822648585,119.8376040871666 L393.05289123610316,120.79948829459477 M393.05289123610316,120.79948829459477 L365.7521613808122,117.92791202654666 M365.7521613808122,117.92791202654666 L340.4454180111721,111.39033737158138 M340.4454180111721,111.39033737158138 L318.6052829638679,101.56792134760269 M318.6052829638679,101.56792134760269 L318.6007439764427,89.2031821830717 M318.6007439764427,89.2031821830717 L340.4420965753832,99.02504048757328 M340.4420965753832,99.02504048757328 L365.750251110947,105.56224399153575 M365.750251110947,105.56224399153575 L393.0525035247964,108.4336572482498 M393.0525035247964,108.4336572482498 L420.7595056858539,107.47182764335889 M420.7595056858539,107.47182764335889 L447.2582169091383,102.73284923356618 M447.2582169091383,102.73284923356618 L471.0062848255301,94.49305708952784 M471.0062848255301,94.49305708952784 L490.6222531436041,83.23275862523167 M490.6222531436041,83.23275862523167 L504.966114379175,69.6079865040308 M504.966114379175,69.6079865040308 L513.2055711514486,54.41199452075591 M513.2055711514486,54.41199452075591 L514.8641089098439,38.528846579805645 M514.8641089098439,38.528846579805645 L509.8481493206654,22.88180608829748 M509.8481493206654,22.88180608829748 L498.45184601878645,8.379640175418558 M498.45184601878645,8.379640175418558 L481.3393845833625,-4.136048588680524 M481.3393845833625,-4.136048588680524 L459.50595436653,-13.939471522874214 M459.50595436653,-13.939471522874214 L434.2197520740568,-20.462462975263634 M434.2197520740568,-20.462462975263634 L406.9484527614153,-23.327143311416762 M406.9484527614153,-23.327143311416762 L379.27431358341045,-22.36760234930091 M379.27431358341045,-22.36760234930091 L352.8028467101535,-17.639409844559964 M352.8028467101535,-17.639409844559964 L329.07016314312847,-9.416429946222252 M329.07016314312847,-9.416429946222252 L309.4541948192487,1.8248814192660348 M309.4541948192487,1.8248814192660348 L295.0949492277147,15.432841303609507 M295.0949492277147,15.432841303609507 L286.8282481095314,30.618047386478793 M286.8282481095314,30.618047386478793 L285.13684737935756,46.49890668725482 M285.13684737935756,46.49890668725482 L290.1218538760197,62.15268009412796 M290.1218538760197,62.15268009412796 L301.49620493340825,76.66905805269926 M301.49620493340825,76.66905805269926 L318.6007439764427,89.2031821830717" stroke="black"  stroke-width="4"  fill="red"/>
<path d="M485.0580923720884,720.4210436281901 L485.06281572666114,708.1412273849268 M485.06281572666114,708.1412273849268 L502.95920912420445,721.3148762350039 M502.95920912420445,721.3148762350039 L514.8779798406465,736.579606022498 M514.8779798406465,736.579606022498 L520.1244108063536,753.0496185509753 M520.1244108063536,753.0496185509753 L518.3906977426545,769.7683777014089 M518.3906977426545,769.7683777014089 L509.77453043716474,785.7640309825349 M509.77453043716474,785.7640309825349 L494.7740987516109,800.1059615177023 M494.7740987516109,800.1059615177023 L474.25973052281773,811.9590813337994 M474.25973052281773,811.9590813337994 L449.42364006557915,820.6327439453331 M449.42364006557915,820.6327439453331 L421.71065726107605,825.6212836991231 M421.71065726107605,825.6212836991231 L392.73389906056246,826.6337682650195 M392.73389906056246,826.6337682650195 L364.1804755044383,823.6111365447811 M364.1804755044383,823.6111365447811 L337.7126950932994,816.729692683 M337.7126950932994,816.729692683 L314.8708323517053,806.3906963729704 M314.8708323517053,806.3906963729704 L296.98310364512326,793.196753593033 M296.98310364512326,793.196753593033 L285.0883420230741,777.9163789697095 M285.0883420230741,777.9163789697095 L279.87576434670063,761.4389547455368 M279.87576434670063,761.4389547455368 L281.6454195304019,744.7227149654763 M281.6454195304019,744.7227149654763 L290.29138387158605,728.73893496303 M290.29138387158605,728.73893496303 L305.3086413808374,714.4155115964447 M305.3086413808374,714.4155115964447 L325.82300961657535,702.5832930666514 M325.82300961657535,702.5832930666514 L350.6422742580065,693.9281376287324 M350.6422742580065,693.9281376287324 L378.32546002188997,688.9514711644117 M378.32546002188997,688.9514711644117 L407.2662760889154,687.9415059746639 M407.2662760889154,687.9415059746639 L435.78584634530955,690.9567259903021 M435.78584634530955,690.9567259903021 L462.22961766372987,697.8225250123551 M462.22961766372987,697.8225250123551 L485.06281572666114,708.1412273849268 M485.0580923720884,720.4210436281901 L462.2261625793549,710.1017673040436 M462.2261625793549,710.1017673040436 L435.7838596930278,703.2355863300736 M435.7838596930278,703.2355863300736 L407.26587291800035,700.2201985594679 M407.26587291800035,700.2201985594679 L378.3266636769909,701.2302199407196 M378.3266636769909,701.2302199407196 L350.6450150411037,706.2071632772038 M350.6450150411037,706.2071632772038 L325.8271287805663,714.8628001772555 M325.8271287805663,714.8628001772555 L305.31390023151596,726.6956767784753 M305.31390023151596,726.6956767784753 L290.29747748093666,741.0198965812773 M290.29747748093666,741.0198965812773 L281.65199429811184,757.0045650985038 M281.65199429811184,757.0045650985038 L279.88243842677457,773.7217338349276 M279.88243842677457,773.7217338349276 L285.0947274562435,790.2000734690446 M285.0947274562435,790.2000734690446 L296.9888289258488,805.4812967558024 M296.9888289258488,805.4812967558024 L314.8755641110562,818.6759721310686 M314.8755641110562,818.6759721310686 L337.7161576197369,829.0155423928595 M337.7161576197369,829.0155423928595 L364.18246693117936,835.8973682067015 M364.18246693117936,835.8973682067015 L392.7343032445623,838.9201676819753 M392.7343032445623,838.9201676819753 L421.7094506255989,837.9076269245519 M421.7094506255989,837.9076269245519 L449.4208929914146,832.9188102984893 M449.4208929914146,832.9188102984893 L474.2556031982762,824.2446662246527 M474.2556031982762,824.2446662246527 L494.76883174038335,812.3908883369364 M494.76883174038335,812.3908883369364 L509.7684305367499,798.0481613653814 M509.7684305367499,798.0481613653814 L518.3841199945705,782.0516195693656 M518.3841199945705,782.0516195693656 L520.1177377393635,765.3319314625452 M520.1177377393635,765.3319314625452 L514.8715991819333,748.8610035241921 M514.8715991819333,748.8610035241921 L502.9534912855389,733.5954250734084 M502.9534912855389,733.5954250734084 L485.0580923720884,720.4210436281901 M318.8676809568958,816.3711223954862 L301.819193816686,803.7954005318725 M301.819193816686,803.7954005318725 L290.48208945585395,789.2308344578686 M290.48208945585395,789.2308344578686 L285.51337211837426,773.5250831290458 M285.51337211837426,773.5250831290458 L287.19917513827835,757.5914768756503 M287.19917513827835,757.5914768756503 L295.4387353761167,742.355820266264 M295.4387353761167,742.355820266264 L309.7508894604573,728.7026382804233 M309.7508894604573,728.7026382804233 L329.3025610216891,717.4239613164051 M329.3025610216891,717.4239613164051 L352.95747924542167,709.1736438201402 M352.95747924542167,709.1736438201402 L379.3422229916907,704.4297304322563 M379.3422229916907,704.4297304322563 L406.9257061099491,703.4669989054282 M406.9257061099491,703.4669989054282 L434.1076666689577,706.3412044119661 M434.1076666689577,706.3412044119661 L459.31102223963626,712.8858832235202 M459.31102223963626,712.8858832235202 L481.0729002722934,722.7218953597793 M481.0729002722934,722.7218953597793 L498.1292579542828,735.2791812577083 M498.1292579542828,735.2791812577083 L509.48817088626754,749.8295348239128 M509.48817088626754,749.8295348239128 L514.4876387340927,765.5285530184443 M514.4876387340927,765.5285530184443 L512.8344836040019,781.4644479864314 M512.8344836040019,781.4644479864314 L504.6219894029401,796.7108908469326 M504.6219894029401,796.7108908469326 L490.3251189868097,810.3808856162756 M490.3251189868097,810.3808856162756 L470.773447431308,821.6785502964416 M470.773447431308,821.6785502964416 L447.1032455458754,829.9456805850164 M447.1032455458754,829.9456805850164 L420.691435758766,834.7003802286207 M420.691435758766,834.7003802286207 L393.07530473956706,835.6654004726306 M393.07530473956706,835.6654004726306 L365.86259366163495,832.7844618266346 M365.86259366163495,832.7844618266346 L340.637429521185,826.2255705014436 M340.637429521185,826.2255705014436 L318.8676809568958,816.3711223954862 M318.8676809568958,816.3711223954862 L318.86317118676294,804.0859745947386 M318.86317118676294,804.0859745947386 L340.63412946725634,813.9398756529355 M340.63412946725634,813.9398756529355 L365.86069568992764,820.4984029299746 M365.86069568992764,820.4984029299746 L393.07491952437823,823.3791816845059 M393.07491952437823,823.3791816845059 L420.6925857663784,822.4142149979793 M420.6925857663784,822.4142149979793 L447.10586371045804,817.659779248255 M447.10586371045804,817.659779248255 L470.77738110494704,809.3931078535139 M470.77738110494704,809.3931078535139 L490.330138924393,798.0960703978977 M490.330138924393,798.0960703978977 L504.62780322996986,784.4268347318355 M504.62780322996986,784.4268347318355 L512.8407529535837,769.1812387373363 M512.8407529535837,769.1812387373363 L514.4939990236126,753.2462291808243 M514.4939990236126,753.2462291808243 L509.4942525582363,737.5480834863075 M509.4942525582363,737.5480834863075 L498.1347079352728,722.9985388023129 M498.1347079352728,722.9985388023129 L481.0774024071287,710.4419511592022 M481.0774024071287,710.4419511592022 L459.314315532844,700.606486070534 M459.314315532844,700.606486070534 L434.1095603033209,694.0621713070013 M434.1095603033209,694.0621713070013 L406.926090404804,691.1881256918663 M406.926090404804,691.1881256918663 L379.3410756915924,692.1508036612321 M379.3410756915924,692.1508036612321 L352.95486679594245,696.894453155335 M352.95486679594245,696.894453155335 L329.2986347614796,705.144311757921 M329.2986347614796,705.144311757921 L309.7458769363023,716.4223614975645 M309.7458769363023,716.4223614975645 L295.4329272641877,730.0747843802797 M295.4329272641877,730.0747843802797 L287.19290849620893,745.3095941237636 M287.19290849620893,745.3095941237636 L285.5070109085211,761.2423149657054 M285.5070109085211,761.2423149657054 L290.4760034465436,776.947193794451 M290.4760034465436,776.947193794451 L301.8137370749773,791.5109509861138 M301.8137370749773,791.5109509861138 L318.86317118676294,804.0859745947386" stroke="black"  stroke-width="4"  fill="red"/>
<path d="M485.589440805281,720.1142694672528 L485.87554919328915,-19.09569884992868 M314.3432672609961,818.9832938607391 L314.05664574134727,79.44044823192428 M485.589440805281,720.1142694672528 L503.5967088402497,733.3709306130722 M503.5967088402497,733.3709306130722 L515.5893848587978,748.7318674953119 M515.5893848587978,748.7318674953119 L520.868418462024,765.3057170647453 M520.868418462024,765.3057170647453 L519.1240759667008,782.1299088039923 M519.1240759667008,782.1299088039923 L510.4546344632554,798.2264683031392 M510.4546344632554,798.2264683031392 L495.36133897984064,812.6588938300295 M495.36133897984064,812.6588938300295 L474.71990216714767,824.586824012929 M474.71990216714767,824.586824012929 L449.7299251111775,833.3152410393274 M449.7299251111775,833.3152410393274 L421.84518904873863,838.3352738713456 M421.84518904873863,838.3352738713456 L392.6888379071147,839.3541524848812 M392.6888379071147,839.3541524848812 L363.95844322586555,836.3124369984679 M363.95844322586555,836.3124369984679 L337.3266478774591,829.3875478639541 M337.3266478774591,829.3875478639541 L314.3432672609961,818.9832938607391 M485.87554919328915,-19.09569884992868 L503.94305688302785,-5.8837051357820656 M503.94305688302785,-5.8837051357820656 L515.975882922709,9.42548735448247 M515.975882922709,9.42548735448247 L521.2726296364137,25.943522710992283 M521.2726296364137,25.943522710992283 L519.5225142831948,42.71107412711797 M519.5225142831948,42.71107412711797 L510.8241286474682,58.753458929214844 M510.8241286474682,58.753458929214844 L495.6803825441842,73.13732386687309 M495.6803825441842,73.13732386687309 L474.96991085274635,85.0251297840066 M474.96991085274635,85.0251297840066 L449.89632668316347,93.72419079736903 M449.89632668316347,93.72419079736903 L421.9182799637793,98.7273419906013 M421.9182799637793,98.7273419906013 L392.6643548113644,99.74279444939395 M392.6643548113644,99.74279444939395 L363.8378142787954,96.71130744049037 M363.8378142787954,96.71130744049037 L337.11690856180985,89.80970694148232 M337.11690856180985,89.80970694148232 L314.05664574134727,79.44044823192428 M314.3432672609961,818.9832938607391 L296.3447715989912,805.7060843127156 M296.3447715989912,805.7060843127156 L284.3764030187985,790.3293064259409 M284.3764030187985,790.3293064259409 L279.1316433891346,773.7479522248409 M279.1316433891346,773.7479522248409 L280.9123746364919,756.9263114465238 M280.9123746364919,756.9263114465238 L289.611983455513,740.8417741076447 M289.611983455513,740.8417741076447 L304.722313845333,726.4280878100949 M304.722313845333,726.4280878100949 L325.36375066514444,714.5213209969055 M325.36375066514444,714.5213209969055 L350.33669282279686,705.8116432099387 M350.33669282279686,705.8116432099387 L378.19126156461164,700.8036325445181 M378.19126156461164,700.8036325445181 L407.31122394037817,699.7873049016746 M407.31122394037817,699.7873049016746 L436.00734463740855,702.8215157469598 M436.00734463740855,702.8215157469598 L462.6148325491756,709.730563863832 M462.6148325491756,709.730563863832 L485.589440805281,720.1142694672528 M314.05664574134727,79.44044823192428 L295.9979692008306,66.20790680660537 M295.9979692008306,66.20790680660537 L283.9896134629966,50.88287384454702 M283.9896134629966,50.88287384454702 L278.72737036358626,34.3573341087606 M278.72737036358626,34.3573341087606 L280.51411827889393,17.592333567772585 M280.51411827889393,17.592333567772585 L289.24287335572217,1.5619705216267903 M289.24287335572217,1.5619705216267903 L304.40376850186874,-12.803155816891604 M304.40376850186874,-12.803155816891604 L325.1142402005208,-24.669799076014215 M325.1142402005208,-24.669799076014215 L350.1706753354373,-33.350121480100825 M350.1706753354373,-33.350121480100825 L378.1183526086036,-38.34125091100066 M378.1183526086036,-38.34125091100066 L407.3356451849206,-39.35415248488118 M407.3356451849206,-39.35415248488118 L436.1276820923955,-36.33016986475127 M436.1276820923955,-36.33016986475127 L462.82411750927304,-29.44440985069741 M462.82411750927304,-29.44440985069741 L485.87554919328915,-19.09569884992868 M314.8755641110557,818.6759721310683 L314.5907244418493,79.13416029544794 M485.0580923720884,720.4210436281901 L485.34242526419075,-18.789958463771313 M314.8755641110557,818.6759721310683 L296.9888289258488,805.4812967558024 M296.9888289258488,805.4812967558024 L285.0947274562435,790.2000734690446 M285.0947274562435,790.2000734690446 L279.88243842677457,773.7217338349276 M279.88243842677457,773.7217338349276 L281.65199429811184,757.0045650985038 M281.65199429811184,757.0045650985038 L290.29747748093666,741.0198965812773 M290.29747748093666,741.0198965812773 L305.31390023151596,726.6956767784753 M305.31390023151596,726.6956767784753 L325.8271287805663,714.8628001772555 M325.8271287805663,714.8628001772555 L350.6450150411037,706.2071632772038 M350.6450150411037,706.2071632772038 L378.3266636769909,701.2302199407196 M378.3266636769909,701.2302199407196 L407.26587291800035,700.2201985594679 M407.26587291800035,700.2201985594679 L435.7838596930278,703.2355863300736 M435.7838596930278,703.2355863300736 L462.2261625793549,710.1017673040436 M462.2261625793549,710.1017673040436 L485.0580923720884,720.4210436281901 M314.5907244418493,79.13416029544794 L296.64418197595023,65.98387558733248 M296.64418197595023,65.98387558733248 L284.7103412277696,50.754075834350715 M284.7103412277696,50.754075834350715 L279.4806766132425,34.331203985650404 M279.4806766132425,34.331203985650404 L281.25621102078674,17.670323691949648 M281.25621102078674,17.670323691949648 L289.93065881313436,1.739492975933672 M289.93065881313436,1.739492975933672 L304.99733189460414,-12.53646847453092 M304.99733189460414,-12.53646847453092 L325.57916653278994,-24.329470735061022 M325.57916653278994,-24.329470735061022 L350.4800275426916,-32.95593458576798 M350.4800275426916,-32.95593458576798 L378.25420700763425,-37.91610153430429 M378.25420700763425,-37.91610153430429 L407.2901426783219,-38.922718131354486 M407.2901426783219,-38.922718131354486 L435.90345060904656,-35.917495056924736 M435.90345060904656,-35.917495056924736 L462.4341490466032,-29.074457532305587 M462.4341490466032,-29.074457532305587 L485.34242526419075,-18.789958463771313 M485.0580923720884,720.4210436281901 L502.9534912855389,733.5954250734084 M502.9534912855389,733.5954250734084 L514.8715991819333,748.8610035241921 M514.8715991819333,748.8610035241921 L520.1177377393635,765.3319314625452 M520.1177377393635,765.3319314625452 L518.3841199945705,782.0516195693656 M518.3841199945705,782.0516195693656 L509.7684305367499,798.0481613653814 M509.7684305367499,798.0481613653814 L494.76883174038335,812.3908883369364 M494.76883174038335,812.3908883369364 L474.2556031982762,824.2446662246527 M474.2556031982762,824.2446662246527 L449.4208929914146,832.9188102984893 M449.4208929914146,832.9188102984893 L421.7094506255989,837.9076269245519 M421.7094506255989,837.9076269245519 L392.7343032445623,838.9201676819753 M392.7343032445623,838.9201676819753 L364.18246693117936,835.8973682067015 M364.18246693117936,835.8973682067015 L337.7161576197369,829.0155423928595 M337.7161576197369,829.0155423928595 L314.8755641110557,818.6759721310683 M485.34242526419075,-18.789958463771313 L503.29768950665465,-5.6599670032295535 M503.29768950665465,-5.6599670032295535 L515.2556975282929,9.5541884399222 M515.2556975282929,9.5541884399222 L520.5194384676645,25.96964884212332 M520.5194384676645,25.96964884212332 L518.7800829774611,42.63304842149057 M518.7800829774611,42.63304842149057 L510.13562853253063,58.57575201698626 M510.13562853253063,58.57575201698626 L495.08589212831873,72.87022001380728 M495.08589212831873,72.87022001380728 L474.5040574971695,84.68412285794761 M474.5040574971695,84.68412285794761 L449.58625981800446,93.32909326008667 M449.58625981800446,93.32909326008667 L421.78208700065426,98.30113309894159 M421.78208700065426,98.30113309894159 L392.7099723989615,99.31026898744608 M392.7099723989615,99.31026898744608 L364.0625881328585,96.29763445757737 M364.0625881328585,96.29763445757737 L337.5077224235405,89.43895261917771 M337.5077224235405,89.43895261917771 L314.5907244418493,79.13416029544794" stroke="black"  stroke-width="4"  fill="red"/></svg>