<svg viewBox="0 0 800 800" xmlns="http://www.w3.org/2000/svg"><path d="M485.3376708055199,-6.429277529204796 L485.34242526419075,-18.789958463771313 M485.34242526419075,-18.789958463771313 L503.29768950665465,-5.6599670032295535 M503.29768950665465,-5.6599670032295535 L515.2556975282929,9.5541884399222 M515.2556975282929,9.5541884399222 L520.5194384676645,25.96964884212332 M520.5194384676645,25.96964884212332 L518.7800829774611,42.63304842149057 M518.7800829774611,42.63304842149057 L510.13562853253063,58.57575201698626 M510.13562853253063,58.57575201698626 L495.08589212831873,72.87022001380728 M495.08589212831873,72.87022001380728 L474.5040574971695,84.68412285794761 M474.5040574971695,84.68412285794761 L449.58625981800446,93.32909326008667 M449.58625981800446,93.32909326008667 L421.78208700065426,98.30113309894159 M421.78208700065426,98.30113309894159 L392.7099723989615,99.31026898744608 M392.7099723989615,99.31026898744608 L364.0625881328585,96.29763445757737 M364.0625881328585,96.29763445757737 L337.5077224235405,89.43895261917771 M337.5077224235405,89.43895261917771 L314.59072444184915,79.1341602954476 M314.59072444184915,79.1341602954476 L296.64418197595023,65.98387558733248 M296.64418197595023,65.98387558733248 L284.7103412277696,50.754075834350715 M284.7103412277696,50.754075834350715 L279.4806766132425,34.331203985650404 M279.4806766132425,34.331203985650404 L281.25621102078674,17.670323691949648 M281.25621102078674,17.670323691949648 L289.93065881313436,1.739492975933672 M289.93065881313436,1.739492975933672 L304.99733189460414,-12.53646847453092 M304.99733189460414,-12.53646847453092 L325.57916653278994,-24.329470735061022 M325.57916653278994,-24.329470735061022 L350.4800275426916,-32.95593458576798 M350.4800275426916,-32.95593458576798 L378.25420700763425,-37.91610153430429 M378.25420700763425,-37.91610153430429 L407.2901426783219,-38.922718131354486 M407.2901426783219,-38.922718131354486 L435.90345060904656,-35.917495056924736 M435.90345060904656,-35.917495056924736 L462.4341490466032,-29.074457532305587 M462.4341490466032,-29.074457532305587 L485.34242526419075,-18.789958463771313 M485.3376708055199,-6.429277529204796 L462.430671212042,-16.714361918559348 M462.430671212042,-16.714361918559348 L435.9014508763645,-23.55778895989249 M435.9014508763645,-23.55778895989249 L407.2897368529451,-26.56318311148334 M407.2897368529451,-26.56318311148334 L378.2554185876264,-25.556509210141826 M378.2554185876264,-25.556509210141826 L350.4827863719811,-20.596059906109076 M350.4827863719811,-20.596059906109076 L325.58331282080934,-11.969105056940748 M325.58331282080934,-11.969105056940748 L305.0026253776907,-0.17543168812471777 M305.0026253776907,-0.17543168812471777 L289.9367925574636,14.10134198027049 M289.9367925574636,14.10134198027049 L281.26282909887396,30.033078822205766 M281.26282909887396,30.033078822205766 L279.4873946645831,46.694906490471 M279.4873946645831,46.694906490471 L284.7167687367974,63.118711904212546 M284.7167687367974,63.118711904212546 L296.6499449877984,78.34937715682008 M296.6499449877984,78.34937715682008 L314.5954873884923,91.50040899760461 M314.5954873884923,91.50040899760461 L337.51120777382914,101.80578666481256 M337.51120777382914,101.80578666481256 L364.06459268725956,108.66485803739295 M364.06459268725956,108.66485803739295 L392.710379247451,111.6776636526979 M392.710379247451,111.6776636526979 L421.78087241078475,110.66847045708892 M421.78087241078475,110.66847045708892 L449.5834946353758,105.6961482494819 M449.5834946353758,105.6961482494819 L474.499902967823,97.05068682821832 M474.499902967823,97.05068682821832 L495.0805904039065,85.23611285245613 M495.0805904039065,85.23611285245613 L510.12948843486555,70.94083261704088 M510.12948843486555,70.94083261704088 L518.7734618894989,54.997222882368874 M518.7734618894989,54.997222882368874 L520.5127214394358,38.332875925624194 M520.5127214394358,38.332875925624194 L515.2492748409811,21.916481966657443 M515.2492748409811,21.916481966657443 L503.2919340105311,6.701461041347557 M503.2919340105311,6.701461041347557 L485.3376708055199,-6.429277529204796 M322.6058330622012,86.906051439919 L306.3423166138361,74.98879035581228 M306.3423166138361,74.98879035581228 L295.52684647667184,61.186666737452924 M295.52684647667184,61.186666737452924 L290.78627992748216,46.30290758369222 M290.78627992748216,46.30290758369222 L292.393731513281,31.203019265945727 M292.393731513281,31.203019265945727 L300.2532335621007,16.764377301657987 M300.2532335621007,16.764377301657987 L313.9059265079164,3.8252674324088503 M313.9059265079164,3.8252674324088503 L332.55717566271585,-6.863636093117179 M332.55717566271585,-6.863636093117179 L355.1230396879261,-14.682599012609558 M355.1230396879261,-14.682599012609558 L380.2932627094493,-19.178507239401483 M380.2932627094493,-19.178507239401483 L406.60714854168066,-20.09091265665313 M406.60714854168066,-20.09091265665313 L432.5379609475838,-17.366960920399833 M432.5379609475838,-17.366960920399833 L456.5810896224381,-11.164440805110189 M456.5810896224381,-11.164440805110189 L477.34093128560465,-1.8427238214477484 M477.34093128560465,-1.8427238214477484 L493.611610038215,10.057870620904623 M493.611610038215,10.057870620904623 L504.44692627522454,23.84714572659277 M504.44692627522454,23.84714572659277 L509.2154762179931,38.72481793348777 M509.2154762179931,38.72481793348777 L507.6377346680282,53.82677531545289 M507.6377346680282,53.82677531545289 L499.80286308443203,68.27516835797394 M499.80286308443203,68.27516835797394 L486.16407849166035,81.22947746608713 M486.16407849166035,81.22947746608713 L467.512829341606,91.93554643078937 M467.512829341606,91.93554643078937 L444.9330569687431,99.76970859429025 M444.9330569687431,99.76970859429025 L419.73820347863096,104.27536790020406 M419.73820347863096,104.27536790020406 L393.3946076013509,105.18984238675648 M393.3946076013509,105.18984238675648 L367.43581179476524,102.45980369960489 M367.43581179476524,102.45980369960489 L343.37283702120965,96.24443506614261 M343.37283702120965,96.24443506614261 L322.6058330622012,86.906051439919 M322.6058330622012,86.906051439919 L322.6015170028395,74.54006373113862 M322.6015170028395,74.54006373113862 L343.3696787424217,83.8779168908219 M343.3696787424217,83.8779168908219 L367.4339953725033,90.09293250956614 M367.4339953725033,90.09293250956614 L393.39423893847453,92.82281615091938 M393.39423893847453,92.82281615091938 L419.7393040726388,91.90839359884183 M419.7393040726388,91.90839359884183 L444.9355626453231,87.4029901889536 M444.9355626453231,87.4029901889536 L467.5165940332281,79.56927301073006 M467.5165940332281,79.56927301073006 L486.1688828289473,68.86381225814773 M486.1688828289473,68.86381225814773 L499.80842727788405,55.910239240326064 M499.80842727788405,55.910239240326064 L507.6437349008877,41.462667385963755 M507.6437349008877,41.462667385963755 L509.2215635681145,26.36156856462867 M509.2215635681145,26.36156856462867 L504.45274704024894,11.484742393936699 M504.45274704024894,11.484742393936699 L493.6168262753959,-2.3037483678726858 M493.6168262753959,-2.3037483678726858 L477.3452403738879,-14.203665740677593 M477.3452403738879,-14.203665740677593 L456.58424172864244,-23.52485227640841 M456.58424172864244,-23.52485227640841 L432.5397734098212,-29.727019391325598 M432.5397734098212,-29.727019391325598 L406.6075163642859,-32.4508160885764 M406.6075163642859,-32.4508160885764 L380.2921645874204,-31.538462603489734 M380.2921645874204,-31.538462603489734 L355.1205392292738,-27.042810261836394 M355.1205392292738,-27.042810261836394 L332.55341773960515,-19.22429231065007 M332.55341773960515,-19.22429231065007 L313.9011289391396,-8.535996978077833 M313.9011289391396,-8.535996978077833 L300.2476745865741,4.402376817849813 M300.2476745865741,4.402376817849813 L292.3877337523989,18.840197604866717 M292.3877337523989,18.840197604866717 L290.78019173709015,33.93922736429329 M290.78019173709015,33.93922736429329 L295.521021751625,48.822140475054766 M295.521021751625,48.822140475054766 L306.3370942040735,62.62347973518888 M306.3370942040735,62.62347973518888 L322.6015170028395,74.54006373113862" stroke="black"  stroke-width="4"  fill="red"/>
<path d="M485.0580923720884,720.4210436281901 L485.06281572666114,708.1412273849268 M485.06281572666114,708.1412273849268 L502.95920912420445,721.3148762350039 M502.95920912420445,721.3148762350039 L514.8779798406465,736.579606022498 M514.8779798406465,736.579606022498 L520.1244108063536,753.0496185509753 M520.1244108063536,753.0496185509753 L518.3906977426545,769.7683777014089 M518.3906977426545,769.7683777014089 L509.77453043716474,785.7640309825349 M509.77453043716474,785.7640309825349 L494.7740987516109,800.1059615177023 M494.7740987516109,800.1059615177023 L474.25973052281773,811.9590813337994 M474.25973052281773,811.9590813337994 L449.42364006557915,820.6327439453331 M449.42364006557915,820.6327439453331 L421.71065726107605,825.6212836991231 M421.71065726107605,825.6212836991231 L392.73389906056246,826.6337682650195 M392.73389906056246,826.6337682650195 L364.1804755044383,823.6111365447811 M364.1804755044383,823.6111365447811 L337.7126950932994,816.729692683 M337.7126950932994,816.729692683 L314.8708323517053,806.3906963729704 M314.8708323517053,806.3906963729704 L296.98310364512326,793.196753593033 M296.98310364512326,793.196753593033 L285.0883420230741,777.9163789697095 M285.0883420230741,777.9163789697095 L279.87576434670063,761.4389547455368 M279.87576434670063,761.4389547455368 L281.6454195304019,744.7227149654763 M281.6454195304019,744.7227149654763 L290.29138387158605,728.73893496303 M290.29138387158605,728.73893496303 L305.3086413808374,714.4155115964447 M305.3086413808374,714.4155115964447 L325.82300961657535,702.5832930666514 M325.82300961657535,702.5832930666514 L350.6422742580065,693.9281376287324 M350.6422742580065,693.9281376287324 L378.32546002188997,688.9514711644117 M378.32546002188997,688.9514711644117 L407.2662760889154,687.9415059746639 M407.2662760889154,687.9415059746639 L435.78584634530955,690.9567259903021 M435.78584634530955,690.9567259903021 L462.22961766372987,697.8225250123551 M462.22961766372987,697.8225250123551 L485.06281572666114,708.1412273849268 M485.0580923720884,720.4210436281901 L462.2261625793549,710.1017673040436 M462.2261625793549,710.1017673040436 L435.7838596930278,703.2355863300736 M435.7838596930278,703.2355863300736 L407.26587291800035,700.2201985594679 M407.26587291800035,700.2201985594679 L378.3266636769909,701.2302199407196 M378.3266636769909,701.2302199407196 L350.6450150411037,706.2071632772038 M350.6450150411037,706.2071632772038 L325.8271287805663,714.8628001772555 M325.8271287805663,714.8628001772555 L305.31390023151596,726.6956767784753 M305.31390023151596,726.6956767784753 L290.29747748093666,741.0198965812773 M290.29747748093666,741.0198965812773 L281.65199429811184,757.0045650985038 M281.65199429811184,757.0045650985038 L279.88243842677457,773.7217338349276 M279.88243842677457,773.7217338349276 L285.0947274562435,790.2000734690446 M285.0947274562435,790.2000734690446 L296.9888289258488,805.4812967558024 M296.9888289258488,805.4812967558024 L314.8755641110562,818.6759721310686 M314.8755641110562,818.6759721310686 L337.7161576197369,829.0155423928595 M337.7161576197369,829.0155423928595 L364.18246693117936,835.8973682067015 M364.18246693117936,835.8973682067015 L392.7343032445623,838.9201676819753 M392.7343032445623,838.9201676819753 L421.7094506255989,837.9076269245519 M421.7094506255989,837.9076269245519 L449.4208929914146,832.9188102984893 M449.4208929914146,832.9188102984893 L474.2556031982762,824.2446662246527 M474.2556031982762,824.2446662246527 L494.76883174038335,812.3908883369364 M494.76883174038335,812.3908883369364 L509.7684305367499,798.0481613653814 M509.7684305367499,798.0481613653814 L518.3841199945705,782.0516195693656 M518.3841199945705,782.0516195693656 L520.1177377393635,765.3319314625452 M520.1177377393635,765.3319314625452 L514.8715991819333,748.8610035241921 M514.8715991819333,748.8610035241921 L502.9534912855389,733.5954250734084 M502.9534912855389,733.5954250734084 L485.0580923720884,720.4210436281901 M322.85963139750965,814.0663687340061 L306.64941141315927,802.1095557166907 M306.64941141315927,802.1095557166907 L295.86935953102017,788.2616139054712 M295.86935953102017,788.2616139054712 L291.14428577531817,773.3284331228401 M291.14428577531817,773.3284331228401 L292.74641996678344,758.1783919585071 M292.74641996678344,758.1783919585071 L300.5801201085077,743.6917806416282 M300.5801201085077,743.6917806416282 L314.18803987521886,730.7096726907602 M314.18803987521886,730.7096726907602 L332.7781543992789,719.9852412023548 M332.7781543992789,719.9852412023548 L355.2700752468441,712.1402851443626 M355.2700752468441,712.1402851443626 L380.35783606609044,707.6294291896476 M380.35783606609044,707.6294291896476 L406.58551930531047,706.7139901134169 M406.58551930531047,706.7139901134169 L432.4313819327473,709.4469985756026 M432.4313819327473,709.4469985756026 L456.3957349685633,715.670139470348 M456.3957349685633,715.670139470348 L477.0875421896816,725.0228429215923 M477.0875421896816,725.0228429215923 L493.30487760230943,736.962988755248 M493.30487760230943,736.962988755248 L504.10464569528204,750.798081636024 M504.10464569528204,750.798081636024 L508.8575196985138,765.7251752738676 M508.8575196985138,765.7251752738676 L507.2849010962899,780.8772855696967 M507.2849010962899,780.8772855696967 L499.4756702180163,795.3736482818707 M499.4756702180163,795.3736482818707 L485.88156777676465,808.3709559658039 M485.88156777676465,808.3709559658039 L467.2914532573879,819.1125534515002 M467.2914532573879,819.1125534515002 L444.785715089684,826.9727092476721 M444.785715089684,826.9727092476721 L419.6734850036657,831.4933165985377 M419.6734850036657,831.4933165985377 L393.4162861661097,832.4108248113382 M393.4162861661097,832.4108248113382 L367.54262328413216,829.6717292003558 M367.54262328413216,829.6717292003558 L343.5585540386117,823.4357393697004 M343.5585540386117,823.4357393697004 L322.85963139750965,814.0663687340061 M322.85963139750965,814.0663687340061 L322.85534359809134,801.7813488906148 M322.85534359809134,801.7813488906148 L343.55541644080205,811.1501993825544 M343.55541644080205,811.1501993825544 L367.5408187567999,817.3858430690525 M367.5408187567999,817.3858430690525 L393.4159199174999,820.124786652062 M393.4159199174999,820.124786652062 L419.67457839026144,819.2073293628628 M419.67457839026144,819.2073293628628 L444.7882043581186,814.6869729274001 M444.7882043581186,814.6869729274001 L467.2951932980934,806.8272534565066 M467.2951932980934,806.8272534565066 L485.8863406586643,796.0862523482863 M485.8863406586643,796.0862523482863 L499.48119798535805,783.0896664347682 M499.48119798535805,783.0896664347682 L507.2908620536398,768.5941089393007 M507.2908620536398,768.5941089393007 L508.86356720833777,753.4428405101975 M508.86356720833777,753.4428405101975 L504.11042836988315,738.5165764625885 M504.11042836988315,738.5165764625885 L493.3100597092946,724.6822526828585 M493.3100597092946,724.6822526828585 L477.0918230863478,712.742770763694 M477.0918230863478,712.742770763694 L456.3988664542894,703.3905874560509 M456.3988664542894,703.3905874560509 L432.4331825388688,697.1677927053449 M432.4331825388688,697.1677927053449 L406.58588472188507,694.4349362710761 M406.58588472188507,694.4349362710761 L380.3567451272446,695.3503244237245 M380.3567451272446,695.3503244237245 L355.26759114519416,699.8609294631264 M355.26759114519416,699.8609294631264 L332.77442106074375,707.70544919598 M332.77442106074375,707.70544919598 L314.1832736954885,718.4292843070679 M314.1832736954885,718.4292843070679 L300.57459750794834,731.410670487661 M300.57459750794834,731.410670487661 L292.7404614571821,745.8964765879239 M292.7404614571821,745.8964765879239 L291.13823743345944,761.04567588555 M291.13823743345944,761.04567588555 L295.86357293521036,775.9780270778903 M295.86357293521036,775.9780270778903 L306.64422319409243,789.8251997879449 M306.64422319409243,789.8251997879449 L322.85534359809134,801.7813488906148" stroke="black"  stroke-width="4"  fill="red"/>
<path d="M485.589440805281,720.1142694672528 L485.87554919328915,-19.09569884992868 M314.3432672609961,818.9832938607391 L314.05664574134727,79.44044823192428 M485.589440805281,720.1142694672528 L503.5967088402497,733.3709306130722 M503.5967088402497,733.3709306130722 L515.5893848587978,748.7318674953119 M515.5893848587978,748.7318674953119 L520.868418462024,765.3057170647453 M520.868418462024,765.3057170647453 L519.1240759667008,782.1299088039923 M519.1240759667008,782.1299088039923 L510.4546344632554,798.2264683031392 M510.4546344632554,798.2264683031392 L495.36133897984064,812.6588938300295 M495.36133897984064,812.6588938300295 L474.71990216714767,824.586824012929 M474.71990216714767,824.586824012929 L449.7299251111775,833.3152410393274 M449.7299251111775,833.3152410393274 L421.84518904873863,838.3352738713456 M421.84518904873863,838.3352738713456 L392.6888379071147,839.3541524848812 M392.6888379071147,839.3541524848812 L363.95844322586555,836.3124369984679 M363.95844322586555,836.3124369984679 L337.3266478774591,829.3875478639541 M337.3266478774591,829.3875478639541 L314.3432672609961,818.9832938607391 M485.87554919328915,-19.09569884992868 L503.94305688302785,-5.8837051357820656 M503.94305688302785,-5.8837051357820656 L515.975882922709,9.42548735448247 M515.975882922709,9.42548735448247 L521.2726296364137,25.943522710992283 M521.2726296364137,25.943522710992283 L519.5225142831948,42.71107412711797 M519.5225142831948,42.71107412711797 L510.8241286474682,58.753458929214844 M510.8241286474682,58.753458929214844 L495.6803825441842,73.13732386687309 M495.6803825441842,73.13732386687309 L474.96991085274635,85.0251297840066 M474.96991085274635,85.0251297840066 L449.89632668316347,93.72419079736903 M449.89632668316347,93.72419079736903 L421.9182799637793,98.7273419906013 M421.9182799637793,98.7273419906013 L392.6643548113644,99.74279444939395 M392.6643548113644,99.74279444939395 L363.8378142787954,96.71130744049037 M363.8378142787954,96.71130744049037 L337.11690856180985,89.80970694148232 M337.11690856180985,89.80970694148232 L314.05664574134727,79.44044823192428 M314.3432672609961,818.9832938607391 L296.3447715989912,805.7060843127156 M296.3447715989912,805.7060843127156 L284.3764030187985,790.3293064259409 M284.3764030187985,790.3293064259409 L279.1316433891346,773.7479522248409 M279.1316433891346,773.7479522248409 L280.9123746364919,756.9263114465238 M280.9123746364919,756.9263114465238 L289.611983455513,740.8417741076447 M289.611983455513,740.8417741076447 L304.722313845333,726.4280878100949 M304.722313845333,726.4280878100949 L325.36375066514444,714.5213209969055 M325.36375066514444,714.5213209969055 L350.33669282279686,705.8116432099387 M350.33669282279686,705.8116432099387 L378.19126156461164,700.8036325445181 M378.19126156461164,700.8036325445181 L407.31122394037817,699.7873049016746 M407.31122394037817,699.7873049016746 L436.00734463740855,702.8215157469598 M436.00734463740855,702.8215157469598 L462.6148325491756,709.730563863832 M462.6148325491756,709.730563863832 L485.589440805281,720.1142694672528 M314.05664574134727,79.44044823192428 L295.9979692008306,66.20790680660537 M295.9979692008306,66.20790680660537 L283.9896134629966,50.88287384454702 M283.9896134629966,50.88287384454702 L278.72737036358626,34.3573341087606 M278.72737036358626,34.3573341087606 L280.51411827889393,17.592333567772585 M280.51411827889393,17.592333567772585 L289.24287335572217,1.5619705216267903 M289.24287335572217,1.5619705216267903 L304.40376850186874,-12.803155816891604 M304.40376850186874,-12.803155816891604 L325.1142402005208,-24.669799076014215 M325.1142402005208,-24.669799076014215 L350.1706753354373,-33.350121480100825 M350.1706753354373,-33.350121480100825 L378.1183526086036,-38.34125091100066 M378.1183526086036,-38.34125091100066 L407.3356451849206,-39.35415248488118 M407.3356451849206,-39.35415248488118 L436.1276820923955,-36.33016986475127 M436.1276820923955,-36.33016986475127 L462.82411750927304,-29.44440985069741 M462.82411750927304,-29.44440985069741 L485.87554919328915,-19.09569884992868 M314.8755641110557,818.6759721310683 L314.5907244418493,79.13416029544794 M485.0580923720884,720.4210436281901 L485.34242526419075,-18.789958463771313 M314.8755641110557,818.6759721310683 L296.9888289258488,805.4812967558024 M296.9888289258488,805.4812967558024 L285.0947274562435,790.2000734690446 M285.0947274562435,790.2000734690446 L279.88243842677457,773.7217338349276 M279.88243842677457,773.7217338349276 L281.65199429811184,757.0045650985038 M281.65199429811184,757.0045650985038 L290.29747748093666,741.0198965812773 M290.29747748093666,741.0198965812773 L305.31390023151596,726.6956767784753 M305.31390023151596,726.6956767784753 L325.8271287805663,714.8628001772555 M325.8271287805663,714.8628001772555 L350.6450150411037,706.2071632772038 M350.6450150411037,706.2071632772038 L378.3266636769909,701.2302199407196 M378.3266636769909,701.2302199407196 L407.26587291800035,700.2201985594679 M407.26587291800035,700.2201985594679 L435.7838596930278,703.2355863300736 M435.7838596930278,703.2355863300736 L462.2261625793549,710.1017673040436 M462.2261625793549,710.1017673040436 L485.0580923720884,720.4210436281901 M314.5907244418493,79.13416029544794 L296.64418197595023,65.98387558733248 M296.64418197595023,65.98387558733248 L284.7103412277696,50.754075834350715 M284.7103412277696,50.754075834350715 L279.4806766132425,34.331203985650404 M279.4806766132425,34.331203985650404 L281.25621102078674,17.670323691949648 M281.25621102078674,17.670323691949648 L289.93065881313436,1.739492975933672 M289.93065881313436,1.739492975933672 L304.99733189460414,-12.53646847453092 M304.99733189460414,-12.53646847453092 L325.57916653278994,-24.329470735061022 M325.57916653278994,-24.329470735061022 L350.4800275426916,-32.95593458576798 M350.4800275426916,-32.95593458576798 L378.25420700763425,-37.91610153430429 M378.25420700763425,-37.91610153430429 L407.2901426783219,-38.922718131354486 M407.2901426783219,-38.922718131354486 L435.90345060904656,-35.917495056924736 M435.90345060904656,-35.917495056924736 L462.4341490466032,-29.074457532305587 M462.4341490466032,-29.074457532305587 L485.34242526419075,-18.789958463771313 M485.0580923720884,720.4210436281901 L502.9534912855389,733.5954250734084 M502.9534912855389,733.5954250734084 L514.8715991819333,748.8610035241921 M514.8715991819333,748.8610035241921 L520.1177377393635,765.3319314625452 M520.1177377393635,765.3319314625452 L518.3841199945705,782.0516195693656 M518.3841199945705,782.0516195693656 L509.7684305367499,798.0481613653814 M509.7684305367499,798.0481613653814 L494.76883174038335,812.3908883369364 M494.76883174038335,812.3908883369364 L474.2556031982762,824.2446662246527 M474.2556031982762,824.2446662246527 L449.4208929914146,832.9188102984893 M449.4208929914146,832.9188102984893 L421.7094506255989,837.9076269245519 M421.7094506255989,837.9076269245519 L392.7343032445623,838.9201676819753 M392.7343032445623,838.9201676819753 L364.18246693117936,835.8973682067015 M364.18246693117936,835.8973682067015 L337.7161576197369,829.0155423928595 M337.7161576197369,829.0155423928595 L314.8755641110557,818.6759721310683 M485.34242526419075,-18.789958463771313 L503.29768950665465,-5.6599670032295535 M503.29768950665465,-5.6599670032295535 L515.2556975282929,9.5541884399222 M515.2556975282929,9.5541884399222 L520.5194384676645,25.96964884212332 M520.5194384676645,25.96964884212332 L518.7800829774611,42.63304842149057 M518.7800829774611,42.63304842149057 L510.13562853253063,58.57575201698626 M510.13562853253063,58.57575201698626 L495.08589212831873,72.87022001380728 M495.08589212831873,72.87022001380728 L474.5040574971695,84.68412285794761 M474.5040574971695,84.68412285794761 L449.58625981800446,93.32909326008667 M449.58625981800446,93.32909326008667 L421.78208700065426,98.30113309894159 M421.78208700065426,98.30113309894159 L392.7099723989615,99.31026898744608 M392.7099723989615,99.31026898744608 L364.0625881328585,96.29763445757737 M364.0625881328585,96.29763445757737 L337.5077224235405,89.43895261917771 M337.5077224235405,89.43895261917771 L314.5907244418493,79.13416029544794" stroke="black"  stroke-width="4"  fill="red"/></svg>