<svg viewBox="0 0 800 800" xmlns="http://www.w3.org/2000/svg"><path d="M90.52359709341562,-4096.989672399599 L90.34298225938164,-4173.029202294538 M109.52979652004285,-4086.615527004964 L109.35993253240804,-4162.769674700603 M90.52359709341562,-4096.989672399599 L109.52979652004285,-4086.615527004964 M90.34298225938164,-4173.029202294538 L109.35993253240804,-4162.769674700603 M109.35993253240804,-4162.769674700603 L-135.78130300353598,-4149.06128685236 M-135.78130300353598,-4149.06128685236 L-353.7947555082644,-4127.649283465722 M-353.7947555082644,-4127.649283465722 L-533.3058867362513,-4099.5495866229085 M-533.3058867362513,-4099.5495866229085 L-664.554176961916,-4066.12759764393 M-664.554176961916,-4066.12759764393 L-739.926824377591,-4029.055228565332 M-739.926824377591,-4029.055228565332 L-754.4704481403642,-3990.2484869676973 M-754.4704481403642,-3990.2484869676973 L-706.337827385903,-3951.782928872468 M-706.337827385903,-3951.782928872468 L-597.1113341873504,-3915.7872578720626 M-597.1113341873504,-3915.7872578720626 L-431.94017023283436,-3884.318466575426 M-431.43534427296856,-3805.060790876487 L-431.94017023283436,-3884.318466575426 M109.52979652004285,-4086.615527004964 L-135.46850132654356,-4072.754021012899 M-135.46850132654356,-4072.754021012899 L-353.35370404185323,-4051.102920793124 M-353.35370404185323,-4051.102920793124 L-532.7577304137851,-4022.689575147506 M-532.7577304137851,-4022.689575147506 L-663.9259098636055,-3988.8947162557324 M-663.9259098636055,-3988.8947162557324 L-739.25036798523,-3951.408988872714 M-739.25036798523,-3951.408988872714 L-753.7813572855284,-3912.169817462229 M-753.7813572855284,-3912.169817462229 L-705.6735977245517,-3873.275900734604 M-705.6735977245517,-3873.275900734604 L-596.5093414675489,-3836.8796190147505 M-596.5093414675489,-3836.8796190147505 L-431.43534427296856,-3805.060790876487 M-488.0774696741887,-3796.776627470602 L-488.61725729404316,-3876.1254075891848 M-431.43534427296856,-3805.060790876487 L-488.0774696741887,-3796.776627470602 M-431.94017023283436,-3884.318466575426 L-488.61725729404316,-3876.1254075891848 M-488.61725729404316,-3876.1254075891848 L-664.6758336655353,-3909.7629372604015 M-664.6758336655353,-3909.7629372604015 L-780.8602625047049,-3948.213239604127 M-780.8602625047049,-3948.213239604127 L-831.7519896779736,-3989.271102488714 M-831.7519896779736,-3989.271102488714 L-815.7615270874478,-4030.660987680687 M-815.7615270874478,-4030.660987680687 L-734.9601343317929,-4070.1709191076934 M-734.9601343317929,-4070.1709191076934 L-594.7134989256315,-4105.7652500017575 M-594.7134989256315,-4105.7652500017575 L-403.189842879121,-4135.672882527428 M-403.189842879121,-4135.672882527428 L-170.80561036697713,-4158.4512103031775 M-170.80561036697713,-4158.4512103031775 L90.34298225938164,-4173.029202294538 M-488.0774696741887,-3796.776627470602 L-664.0325572473621,-3830.7882741822095 M-664.0325572473621,-3830.7882741822095 L-780.1509945056973,-3869.666472429233 M-780.1509945056973,-3869.666472429233 L-831.0167433779736,-3911.1815453528106 M-831.0167433779736,-3911.1815453528106 L-815.040324014986,-3953.0326471020817 M-815.040324014986,-3953.0326471020817 L-734.2908066974303,-3992.983135968694 M-734.2908066974303,-3992.983135968694 L-594.1299094367027,-4028.974605432739 M-594.1299094367027,-4028.974605432739 L-402.7205462771774,-4059.2161055265005 M-402.7205462771774,-4059.2161055265005 L-170.47291968019033,-4082.2488231187453 M-170.47291968019033,-4082.2488231187453 L90.52359709341562,-4096.989672399599" stroke="black"  stroke-width="4"  fill="red"/>
<path d="M1527.6116892864964,-3882.849086806047 L1528.2856811475085,-3961.25070514276 M1603.1764940713306,-3879.88779803754 L1603.896049212918,-3958.322024670655 M1527.6116892864964,-3882.849086806047 L1603.1764940713306,-3879.88779803754 M1528.2856811475085,-3961.25070514276 L1603.896049212918,-3958.322024670655 M1603.896049212918,-3958.322024670655 L1503.6770133780028,-3919.007903904312 M1503.6770133780028,-3919.007903904312 L1341.8704254148558,-3883.969735564582 M1341.8704254148558,-3883.969735564582 L1126.7195987619743,-3855.264249731964 M1126.7195987619743,-3855.264249731964 L869.926563952346,-3834.621583763228 M869.926563952346,-3834.621583763228 L586.0094473476831,-3823.311273527056 M586.0094473476831,-3823.311273527056 L291.3757842216955,-3822.0379295297435 M291.3757842216955,-3822.0379295297435 L3.1912358907875955,-3830.8812819104514 M3.1912358907875955,-3830.8812819104514 L-261.8354835648141,-3849.289294533356 M-261.8354835648141,-3849.289294533356 L-488.61725729404384,-3876.1254075891848 M-488.0774696741894,-3796.776627470602 L-488.61725729404384,-3876.1254075891848 M1603.1764940713306,-3879.88779803754 L1503.013580631093,-3840.1360993853914 M1503.013580631093,-3840.1360993853914 L1341.3014867955922,-3804.7081818309407 M1341.3014867955922,-3804.7081818309407 L1126.2790404751088,-3775.683554555849 M1126.2790404751088,-3775.683554555849 L869.6412525835174,-3754.8114801461916 M869.6412525835174,-3754.8114801461916 L585.8970758907349,-3743.3755076186 M585.8970758907349,-3743.3755076186 L291.4433847817632,-3742.0880176870924 M291.4433847817632,-3742.0880176870924 L3.434573789100682,-3751.0296194053835 M3.434573789100682,-3751.0296194053835 L-261.43154397001035,-3769.642189859932 M-261.43154397001035,-3769.642189859932 L-488.0774696741894,-3796.776627470602 M-431.43534427296936,-3805.060790876487 L-431.9401702328348,-3884.318466575426 M-488.0774696741894,-3796.776627470602 L-431.43534427296936,-3805.060790876487 M-488.61725729404384,-3876.1254075891848 L-431.9401702328348,-3884.318466575426 M-431.9401702328348,-3884.318466575426 L-219.43286162026857,-3859.2268672657865 M-219.43286162026857,-3859.2268672657865 L28.730660704843842,-3842.0228123149054 M28.730660704843842,-3842.0228123149054 L298.47018368338473,-3833.7599664040563 M298.47018368338473,-3833.7599664040563 L574.2163730991481,-3834.9496326058897 M574.2163730991481,-3834.9496326058897 L839.9808101771903,-3845.5179951356213 M839.9808101771903,-3845.5179951356213 L1080.4705074723995,-3864.8123076790434 M1080.4705074723995,-3864.8123076790434 L1282.128147129274,-3891.6552588214145 M1282.128147129274,-3891.6552588214145 L1433.9894687328772,-3924.4396540542693 M1433.9894687328772,-3924.4396540542693 L1528.2856811475085,-3961.25070514276 M-431.43534427296936,-3805.060790876487 L-219.0552755667543,-3779.690218739035 M-219.0552755667543,-3779.690218739035 L28.958044212758466,-3762.294951999589 M28.958044212758466,-3762.294951999589 L298.5333415286063,-3753.94028904102 M298.5333415286063,-3753.94028904102 L574.1113841993892,-3755.1431740950356 M574.1113841993892,-3755.1431740950356 L839.7141864136609,-3765.8289771439213 M839.7141864136609,-3765.8289771439213 L1080.0586454556053,-3785.337749192686 M1080.0586454556053,-3785.337749192686 L1281.5959797332073,-3812.479176429968 M1281.5959797332073,-3812.479176429968 L1433.3685052260923,-3845.6282898586487 M1433.3685052260923,-3845.6282898586487 L1527.6116892864964,-3882.849086806047" stroke="black"  stroke-width="4"  fill="red"/>
<path d="M109.52979652004285,-4086.615527004964 L109.35993253240804,-4162.769674700603 M90.52359709341562,-4096.989672399599 L90.34298225938164,-4173.029202294538 M109.52979652004285,-4086.615527004964 L90.52359709341562,-4096.989672399599 M109.35993253240804,-4162.769674700603 L90.34298225938164,-4173.029202294538 M90.34298225938164,-4173.029202294538 L367.0371861604913,-4178.733887539298 M367.0371861604913,-4178.733887539298 L645.4721921531786,-4175.304542692709 M645.4721921531786,-4175.304542692709 L911.7783829100256,-4162.897726869993 M911.7783829100256,-4162.897726869993 L1152.5409008018994,-4142.08427164503 M1152.5409008018994,-4142.08427164503 L1355.3315741677268,-4113.837648569897 M1355.3315741677268,-4113.837648569897 L1509.2607871781895,-4079.510867150593 M1509.2607871781895,-4079.510867150593 L1605.5450539664414,-4040.7980124114183 M1605.5450539664414,-4040.7980124114183 L1638.0686152684,-3999.675882977708 M1638.0686152684,-3999.675882977708 L1603.896049212918,-3958.322024670655 M1603.1764940713306,-3879.88779803754 L1603.896049212918,-3958.322024670655 M1603.1764940713306,-3879.88779803754 L1637.3331787048855,-3921.702239378338 M1637.3331787048855,-3921.702239378338 L1604.833401068641,-3963.282678247766 M1604.833401068641,-3963.282678247766 L1508.6099072404795,-4002.427270904376 M1508.6099072404795,-4002.427270904376 L1354.7741116022107,-4037.1371025537646 M1354.7741116022107,-4037.1371025537646 L1152.10392310338,-4065.699087938061 M1152.10392310338,-4065.699087938061 L911.4825374739421,-4086.745009635144 M911.4825374739421,-4086.745009635144 L645.3311754869437,-4099.290435121011 M645.3311754869437,-4099.290435121011 L367.05744693296407,-4102.758097727319 M367.05744693296407,-4102.758097727319 L90.52359709341562,-4096.989672399599 M1527.6116892864964,-3882.849086806047 L1528.2856811475085,-3961.25070514276 M1603.1764940713306,-3879.88779803754 L1527.6116892864964,-3882.849086806047 M1603.896049212918,-3958.322024670655 L1528.2856811475085,-3961.25070514276 M1528.2856811475085,-3961.25070514276 L1560.7595988145517,-4000.0010654289727 M1560.7595988145517,-4000.0010654289727 L1530.707477203278,-4038.5642204135256 M1530.707477203278,-4038.5642204135256 L1440.789336159254,-4074.8953518581 M1440.789336159254,-4074.8953518581 L1296.6687226394788,-4107.132444663854 M1296.6687226394788,-4107.132444663854 L1106.5447770558599,-4133.675171302517 M1106.5447770558599,-4133.675171302517 L880.6317318685899,-4153.242159016152 M880.6317318685899,-4153.242159016152 L630.6242284506177,-4164.909625929047 M630.6242284506177,-4164.909625929047 L369.1706083490375,-4168.135087135379 M369.1706083490375,-4168.135087135379 L109.35993253240804,-4162.769674700603 M1527.6116892864964,-3882.849086806047 L1560.0701945457722,-3922.0310448120854 M1560.0701945457722,-3922.0310448120854 L1530.039850953216,-3961.023982587538 M1530.039850953216,-3961.023982587538 L1440.1782775192723,-3997.760267675463 M1440.1782775192723,-3997.760267675463 L1296.1450272202253,-4030.357058949323 M1296.1450272202253,-4030.357058949323 L1106.1340496605246,-4057.1960882201784 M1106.1340496605246,-4057.1960882201784 L880.3535493978541,-4076.9815885221524 M880.3535493978541,-4076.9815885221524 L630.4915999073582,-4088.779383851692 M630.4915999073582,-4088.779383851692 L369.1896651490378,-4092.0408785895743 M369.1896651490378,-4092.0408785895743 L109.52979652004285,-4086.615527004964" stroke="black"  stroke-width="4"  fill="red"/>
<path d="M-783.1987037788842,-4050.783465610044 L-783.8993138413844,-4128.278974475914 M-709.6025380240708,-4047.9328029763838 L-710.259928621382,-4125.460174960586 M-783.1987037788842,-4050.783465610044 L-709.6025380240708,-4047.9328029763838 M-783.8993138413844,-4128.278974475914 L-710.259928621382,-4125.460174960586 M709.3312797650119,-3839.0891217391054 L709.5187693058697,-3918.9469098075306 M-709.6025380240708,-4047.9328029763838 L-754.99505904324,-4009.7415243075975 M-754.99505904324,-4009.7415243075975 L-738.2228468089959,-3970.83987286077 M-738.2228468089959,-3970.83987286077 L-659.123157418778,-3933.344554226065 M-659.123157418778,-3933.344554226065 L-521.0587875502233,-3899.364903298455 M-521.0587875502233,-3899.364903298455 L-330.9390236435438,-3870.8716626995465 M-330.9390236435438,-3870.8716626995465 L-98.97472905324298,-3849.5611472862774 M-98.97472905324298,-3849.5611472862774 L161.8536246550276,-3836.7283345512888 M161.8536246550276,-3836.7283345512888 L436.59501311481813,-3833.163963190156 M436.59501311481813,-3833.163963190156 L709.3312797650119,-3839.0891217391054 M-710.259928621382,-4125.460174960586 L-755.6832603302641,-4087.695638067529 M-755.6832603302641,-4087.695638067529 L-738.9050539914638,-4049.2283999016727 M-738.9050539914638,-4049.2283999016727 L-659.7616116261843,-4012.151535953628 M-659.7616116261843,-4012.151535953628 L-521.6169898366975,-3978.5508887458127 M-521.6169898366975,-3978.5508887458127 L-331.38413350552946,-3950.3752993809376 M-331.38413350552946,-3950.3752993809376 L-99.27993295596002,-3929.302265856155 M-99.27993295596002,-3929.302265856155 L161.70703569795302,-3916.6124216112166 M161.70703569795302,-3916.6124216112166 L436.6161189258692,-3913.087755204945 M436.6161189258692,-3913.087755204945 L709.5187693058697,-3918.9469098075306 M730.3648099452064,-3827.7416621928505 L730.565466955157,-3907.7258510589418 M709.3312797650119,-3839.0891217391054 L730.3648099452064,-3827.7416621928505 M709.5187693058697,-3918.9469098075306 L730.565466955157,-3907.7258510589418 M730.565466955157,-3907.7258510589418 L438.98555744229515,-3901.4548213456646 M438.98555744229515,-3901.4548213456646 L145.2512602635237,-3905.2273481151597 M145.2512602635237,-3905.2273481151597 L-133.5370608949811,-3918.807305761541 M-133.5370608949811,-3918.807305761541 L-381.3339593588171,-3941.350746888993 M-381.3339593588171,-3941.350746888993 L-584.2398341635376,-3971.4772152168043 M-584.2398341635376,-3971.4772152168043 L-731.3630140465616,-4007.3817861242987 M-731.3630140465616,-4007.3817861242987 L-815.3841216892038,-4046.9724523122313 M-815.3841216892038,-4046.9724523122313 L-832.8038724512526,-4088.0162139415734 M-832.8038724512526,-4088.0162139415734 L-783.8993138413844,-4128.278974475914 M-783.1987037788842,-4050.783465610044 L-832.0698628937575,-4010.065721608915 M-832.0698628937575,-4010.065721608915 L-814.6559359073528,-3968.5584571227646 M-814.6559359073528,-3968.5584571227646 L-730.6810158918677,-3928.5209906450445 M-730.6810158918677,-3928.5209906450445 L-583.64315351396,-3892.2114675688817 M-583.64315351396,-3892.2114675688817 L-380.85789396336145,-3861.7453983207906 M-380.85789396336145,-3861.7453983207906 L-133.21049125326317,-3838.9479449667015 M-133.21049125326317,-3838.9479449667015 L145.40815167723605,-3825.215017744683 M145.40815167723605,-3825.215017744683 L438.9629666315458,-3821.400001869607 M438.9629666315458,-3821.400001869607 L730.3648099452064,-3827.7416621928505" stroke="black"  stroke-width="4"  fill="red"/>
<path d="M1206.7597110751694,-4121.203696294549 L1207.2303118913153,-4197.911629326343 M1259.4060139364171,-4128.814077969317 L1259.9068163303834,-4205.436844246211 M1206.7597110751694,-4121.203696294549 L1259.4060139364171,-4128.814077969317 M1207.2303118913153,-4197.911629326343 L1259.9068163303834,-4205.436844246211 M730.3648099452064,-3827.7416621928505 L730.565466955157,-3907.7258510589418 M1259.4060139364171,-4128.814077969317 L1439.0088942377706,-4097.335817755835 M1439.0088942377706,-4097.335817755835 L1565.0596953716226,-4060.584939184291 M1565.0596953716226,-4060.584939184291 L1630.0403891814703,-4020.405584899723 M1630.0403891814703,-4020.405584899723 L1629.3664721915384,-3978.886741233875 M1629.3664721915384,-3978.886741233875 L1561.8540358955895,-3938.267764379185 M1561.8540358955895,-3938.267764379185 L1430.0433453808907,-3900.8198319796 M1430.0433453808907,-3900.8198319796 L1240.3067411034187,-3868.707940390841 M1240.3067411034187,-3868.707940390841 L1002.6773678091595,-3843.843512102002 M1002.6773678091595,-3843.843512102002 L730.3648099452064,-3827.7416621928505 M1259.9068163303834,-4205.436844246211 L1439.617535103587,-4174.310786346054 M1439.617535103587,-4174.310786346054 L1565.7461571706056,-4137.970881639243 M1565.7461571706056,-4137.970881639243 L1630.7696342840227,-4098.240566603217 M1630.7696342840227,-4098.240566603217 L1630.0998915704206,-4057.185431224436 M1630.0998915704206,-4057.185431224436 L1562.5513409828854,-4017.019816397904 M1562.5513409828854,-4017.019816397904 L1430.6648595105535,-3979.989593577866 M1430.6648595105535,-3979.989593577866 L1240.8159609635356,-3948.2356930157366 M1240.8159609635356,-3948.2356930157366 L1003.0435775836636,-3923.648333618594 M1003.0435775836636,-3923.648333618594 L730.565466955157,-3907.7258510589418 M709.3312797650119,-3839.0891217391054 L709.5187693058697,-3918.9469098075306 M730.3648099452064,-3827.7416621928505 L709.3312797650119,-3839.0891217391054 M730.565466955157,-3907.7258510589418 L709.5187693058697,-3918.9469098075306 M709.3312797650119,-3839.0891217391054 L964.2841279298684,-3854.136637440696 M964.2841279298684,-3854.136637440696 L1186.9078074864526,-3877.381912949242 M1186.9078074864526,-3877.381912949242 L1364.848920120059,-3907.418795673123 M1364.848920120059,-3907.418795673123 L1488.6833581199726,-3942.4698601847194 M1488.6833581199726,-3942.4698601847194 L1552.3764815607335,-3980.51696294429 M1552.3764815607335,-3980.51696294429 L1553.4583163400337,-4019.43704665093 M1553.4583163400337,-4019.43704665093 L1492.9429632970741,-4057.1304852300964 M1492.9429632970741,-4057.1304852300964 L1375.0453360988874,-4091.6325714104696 M1375.0453360988874,-4091.6325714104696 L1206.7597110751694,-4121.203696294549 M709.5187693058697,-3918.9469098075306 L964.6264100254455,-3933.8267740772935 M964.6264100254455,-3933.8267740772935 L1187.383978353346,-3956.8129840954934 M1187.383978353346,-3956.8129840954934 L1365.430448678844,-3986.5149677871377 M1365.430448678844,-3986.5149677871377 L1489.3362618017654,-4021.1750247783475 M1489.3362618017654,-4021.1750247783475 L1553.0637256003486,-4058.7974513730605 M1553.0637256003486,-4058.7974513730605 L1554.1421837575178,-4097.282849076628 M1554.1421837575178,-4097.282849076628 L1493.5871974284544,-4134.555045468724 M1493.5871974284544,-4134.555045468724 L1375.6169324852779,-4168.671333373493 M1375.6169324852779,-4168.671333373493 L1207.2303118913153,-4197.911629326343" stroke="black"  stroke-width="4"  fill="red"/>
<path d="M-709.6025380240708,-4047.9328029763838 L-710.259928621382,-4125.460174960586 M-783.1987037788842,-4050.783465610044 L-783.8993138413844,-4128.278974475914 M-709.6025380240708,-4047.9328029763838 L-783.1987037788842,-4050.783465610044 M-710.259928621382,-4125.460174960586 L-783.8993138413844,-4128.278974475914 M1259.4060139364171,-4128.814077969317 L1259.9068163303834,-4205.436844246211 M-783.1987037788842,-4050.783465610044 L-671.8163322777671,-4088.5752912261705 M-671.8163322777671,-4088.5752912261705 L-504.7563090849916,-4121.528365160675 M-504.7563090849916,-4121.528365160675 L-291.38199843008033,-4148.02923172884 M-291.38199843008033,-4148.02923172884 L-43.02061990463636,-4166.816857894621 M-43.02061990463636,-4166.816857894621 L227.60212642376973,-4177.016766678931 M227.60212642376973,-4177.016766678931 L506.9084895303146,-4178.160970348148 M506.9084895303146,-4178.160970348148 L780.9966408512528,-4170.197265428815 M780.9966408512528,-4170.197265428815 L1036.1588682119468,-4153.490218823825 M1036.1588682119468,-4153.490218823825 L1259.4060139364171,-4128.814077969317 M-783.8993138413844,-4128.278974475914 L-672.4474592583204,-4165.648247865638 M-672.4474592583204,-4165.648247865638 L-505.2865684019546,-4198.232665076819 M-505.2865684019546,-4198.232665076819 L-291.7858340780215,-4224.436918084473 M-291.7858340780215,-4224.436918084473 L-43.27906246159705,-4243.014186411649 M-43.27906246159705,-4243.014186411649 L227.50099440075303,-4253.099864503285 M227.50099440075303,-4253.099864503285 L506.96928440034765,-4254.231252869415 M506.96928440034765,-4254.231252869415 L781.2165907079525,-4246.356738172499 M781.2165907079525,-4246.356738172499 L1036.527864561539,-4229.8367670592415 M1036.527864561539,-4229.8367670592415 L1259.9068163303834,-4205.436844246211 M1206.7597110751694,-4121.203696294549 L1207.2303118913153,-4197.911629326343 M1259.4060139364171,-4128.814077969317 L1206.7597110751694,-4121.203696294549 M1259.9068163303834,-4205.436844246211 L1207.2303118913153,-4197.911629326343 M1206.7597110751694,-4121.203696294549 L997.3593897669448,-4144.397086927174 M997.3593897669448,-4144.397086927174 L757.8655491595598,-4160.1063657717 M757.8655491595598,-4160.1063657717 L500.5144977513674,-4167.596212462653 M500.5144977513674,-4167.596212462653 L238.23840412220287,-4166.520028238609 M238.23840412220287,-4166.520028238609 L-15.84232730315091,-4156.927446715294 M-15.84232730315091,-4156.927446715294 L-248.92148492830086,-4139.2633201278495 M-248.92148492830086,-4139.2633201278495 L-449.01724390956815,-4114.357833790516 M-449.01724390956815,-4114.357833790516 L-605.4951992654726,-4083.405933815897 M-605.4951992654726,-4083.405933815897 L-709.6025380240708,-4047.9328029763838 M1207.2303118913153,-4197.911629326343 L997.7062947650429,-4220.845433790033 M997.7062947650429,-4220.845433790033 L758.0723961211827,-4236.3788362826945 M758.0723961211827,-4236.3788362826945 L500.57167953495,-4243.7848134929245 M500.57167953495,-4243.7848134929245 L238.14328451666614,-4242.720680730259 M238.14328451666614,-4242.720680730259 L-16.085358374914506,-4233.235510979697 M-16.085358374914506,-4233.235510979697 L-249.30110435028678,-4215.769133604284 M-249.30110435028678,-4215.769133604284 L-449.5154567170981,-4191.14236916685 M-449.5154567170981,-4191.14236916685 L-606.0878152438834,-4160.53670425044 M-606.0878152438834,-4160.53670425044 L-710.259928621382,-4125.460174960586" stroke="black"  stroke-width="4"  fill="red"/>
<path d="M110.46055718840495,4296.546114766839 L110.30232756287057,4229.930842519478 M128.27811694737983,4318.7114804971025 L128.12933593613224,4252.009342730162 M110.46055718840495,4296.546114766839 L128.27811694737983,4318.7114804971025 M110.30232756287057,4229.930842519478 L128.12933593613224,4252.009342730162 M128.12933593613224,4252.009342730162 L-101.22241071619453,4281.502788899069 M-101.22241071619453,4281.502788899069 L-305.07682977329546,4327.554464773386 M-305.07682977329546,4327.554464773386 L-472.773992870385,4387.960027834348 M-472.773992870385,4387.960027834348 L-595.1985277687695,4459.763129630446 M-595.1985277687695,4459.763129630446 L-665.2785913577638,4539.35311104659 M-665.2785913577638,4539.35311104659 L-678.4568840550785,4622.604094806833 M-678.4568840550785,4622.604094806833 L-633.0942964936357,4705.06014100067 M-633.0942964936357,4705.06014100067 L-530.7539579705585,4782.164903009934 M-530.7539579705585,4782.164903009934 L-376.3105753699688,4849.527926894561 M-375.8708336237339,4918.567381053417 L-376.3105753699688,4849.527926894561 M128.27811694737983,4318.7114804971025 L-100.94850730682947,4348.320909804643 M-100.94850730682947,4348.320909804643 L-304.69078859861975,4394.553556747231 M-304.69078859861975,4394.553556747231 L-472.29447216280187,4455.196262421033 M-472.29447216280187,4455.196262421033 L-594.6492902483951,4527.2809041233495 M-594.6492902483951,4527.2809041233495 L-664.6876595221738,4607.182516557981 M-664.6876595221738,4607.182516557981 L-677.8553766127534,4690.758969399693 M-677.8553766127534,4690.758969399693 L-632.514930799462,4773.536876535272 M-632.514930799462,4773.536876535272 L-530.2292507434322,4850.942160644438 M-530.2292507434322,4850.942160644438 L-375.8708336237339,4918.567381053417 M-428.6696898967625,4936.166999811094 L-429.13980987716036,4867.059362692667 M-375.8708336237339,4918.567381053417 L-428.6696898967625,4936.166999811094 M-376.3105753699688,4849.527926894561 L-429.13980987716036,4867.059362692667 M-429.13980987716036,4867.059362692667 L-593.7719555921847,4795.063982531521 M-593.7719555921847,4795.063982531521 L-702.6531604816803,4712.709067083921 M-702.6531604816803,4712.709067083921 L-750.6477981308303,4624.700024981208 M-750.6477981308303,4624.700024981208 L-736.1741615978133,4535.90694566756 M-736.1741615978133,4535.90694566756 L-661.0688025292036,4451.07906702332 M-661.0688025292036,4451.07906702332 L-530.2648575110534,4374.601188580447 M-530.2648575110534,4374.601188580447 L-351.34791910143485,4310.3000675304775 M-351.34791910143485,4310.3000675304775 L-134.04595807141402,4261.301335361222 M-134.04595807141402,4261.301335361222 L110.30232756287057,4229.930842519478 M-428.6696898967625,4936.166999811094 L-593.211331466292,4863.891472868611 M-593.211331466292,4863.891472868611 L-702.0345542976625,4781.215634385665 M-702.0345542976625,4781.215634385665 L-750.0060139919722,4692.8630870466195 M-750.0060139919722,4692.8630870466195 L-735.5441204194328,4603.722867481225 M-735.5441204194328,4603.722867481225 L-660.4836226842199,4518.562811385561 M-660.4836226842199,4518.562811385561 L-529.75427751435,4441.785001508365 M-529.75427751435,4441.785001508365 L-350.9370904583618,4377.231372421542 M-350.9370904583618,4377.231372421542 L-133.7545847966528,4328.040020814065 M-133.7545847966528,4328.040020814065 L110.46055718840495,4296.546114766839" stroke="black"  stroke-width="4"  fill="red"/>
<path d="M1453.3708072850736,4753.168100279954 L1453.958797878105,4684.7705175685205 M1523.9190828120245,4759.469212678505 L1524.5467865046069,4691.047140710749 M1453.3708072850736,4753.168100279954 L1523.9190828120245,4759.469212678505 M1453.958797878105,4684.7705175685205 L1524.5467865046069,4691.047140710749 M1524.5467865046069,4691.047140710749 L1430.5448262819907,4775.268330641182 M1430.5448262819907,4775.268330641182 L1279.1761121090346,4850.274196255351 M1279.1761121090346,4850.274196255351 L1078.1858159110338,4911.685082403094 M1078.1858159110338,4911.685082403094 L838.5017903306316,4955.825320574398 M838.5017903306316,4955.825320574398 L573.6339957774906,4980.002544698323 M573.6339957774906,4980.002544698323 L298.8205309827973,4982.724141146373 M298.8205309827973,4982.724141146373 L29.99198583781839,4963.821288007994 M29.99198583781839,4963.821288007994 L-217.3383730099323,4924.463186329482 M-217.3383730099323,4924.463186329482 L-429.1398098771608,4867.059362692667 M-428.669689896763,4936.166999811094 L-429.1398098771608,4867.059362692667 M1523.9190828120245,4759.469212678505 L1429.9665300967179,4844.018726052507 M1429.9665300967179,4844.018726052507 L1278.6805267790805,4919.316553250893 M1278.6805267790805,4919.316553250893 L1077.802276163922,4980.966175535989 M1077.802276163922,4980.966175535989 L838.2535060625041,5025.277839228331 M838.2535060625041,5025.277839228331 L573.5362294640183,5049.5488989034175 M573.5362294640183,5049.5488989034175 L298.87934388534876,5052.281055608129 M298.87934388534876,5052.281055608129 L30.20372823856877,5033.304844987562 M30.20372823856877,5033.304844987562 L-216.98675409620307,4993.793919902498 M-216.98675409620307,4993.793919902498 L-428.669689896763,4936.166999811094 M-375.8708336237346,4918.567381053417 L-376.31057536996946,4849.52792689456 M-428.669689896763,4936.166999811094 L-375.8708336237346,4918.567381053417 M-429.1398098771608,4867.059362692667 L-376.31057536996946,4849.52792689456 M-376.31057536996946,4849.52792689456 L-177.83475654090466,4903.209754221666 M-177.83475654090466,4903.209754221666 L53.77695504689427,4940.001332853423 M53.77695504689427,4940.001332853423 L305.4264584093331,4957.667327010141 M305.4264584093331,4957.667327010141 L562.6526453498554,4955.123993972606 M562.6526453498554,4955.123993972606 L810.6111974932498,4932.5277521730695 M810.6111974932498,4932.5277521730695 L1035.093790120201,4891.262372856352 M1035.093790120201,4891.262372856352 L1223.48143629705,4833.82631550861 M1223.48143629705,4833.82631550861 L1365.5351541471073,4763.635987484423 M1365.5351541471073,4763.635987484423 L1453.958797878105,4684.7705175685205 M-375.8708336237346,4918.567381053417 L-177.506013244403,4972.457915762669 M-177.506013244403,4972.457915762669 L53.97485810305727,5009.39241298252 M53.97485810305727,5009.39241298252 L305.4814188299461,5027.126996282807 M305.4814188299461,5027.126996282807 L562.5612810942218,5024.573790030488 M562.5612810942218,5024.573790030488 L810.3791257088947,5001.889808855716 M810.3791257088947,5001.889808855716 L1034.7351651129986,4960.46410291977 M1034.7351651129986,4960.46410291977 L1223.0178109483174,4902.804684122167 M1223.0178109483174,4902.804684122167 L1364.993819182478,4832.341066902261 M1364.993819182478,4832.341066902261 L1453.3708072850736,4753.168100279954" stroke="black"  stroke-width="4"  fill="red"/>
<path d="M128.27811694737983,4318.7114804971025 L128.12933593613224,4252.009342730162 M110.46055718840495,4296.546114766839 L110.30232756287057,4229.930842519478 M128.27811694737983,4318.7114804971025 L110.46055718840495,4296.546114766839 M128.12933593613224,4252.009342730162 L110.30232756287057,4229.930842519478 M110.30232756287057,4229.930842519478 L369.2762846023345,4217.652420735743 M369.2762846023345,4217.652420735743 L629.8884047158501,4225.033702865308 M629.8884047158501,4225.033702865308 L879.0884090709437,4251.733802146154 M879.0884090709437,4251.733802146154 L1104.2661225704499,4296.510686676024 M1104.2661225704499,4296.510686676024 L1293.763382780444,4357.249360222603 M1293.763382780444,4357.249360222603 L1437.3994342016308,4431.016493764996 M1437.3994342016308,4431.016493764996 L1527.0037828563036,4514.1490615894945 M1527.0037828563036,4514.1490615894945 L1556.9351671006625,4602.385647910922 M1556.9351671006625,4602.385647910922 L1524.5467865046069,4691.047140710749 M1523.9190828120245,4759.469212678505 L1524.5467865046069,4691.047140710749 M1523.9190828120245,4759.469212678505 L1556.2930848915937,4670.4615253083775 M1556.2930848915937,4670.4615253083775 L1526.381960096606,4581.879831965797 M1526.381960096606,4581.879831965797 L1436.8302776986648,4498.42159804569 M1436.8302776986648,4498.42159804569 L1293.2755832299822,4424.365063018196 M1293.2755832299822,4424.365063018196 L1103.8835378018246,4363.387801764498 M1103.8835378018246,4363.387801764498 L878.8292823700815,4318.434856047862 M878.8292823700815,4318.434856047862 L629.7648599394486,4291.62970299799 M629.7648599394486,4291.62970299799 L369.2940362809171,4284.21936938556 M369.2940362809171,4284.21936938556 L110.46055718840495,4296.546114766839 M1453.3708072850736,4753.168100279954 L1453.958797878105,4684.7705175685205 M1523.9190828120245,4759.469212678505 L1453.3708072850736,4753.168100279954 M1524.5467865046069,4691.047140710749 L1453.958797878105,4684.7705175685205 M1453.958797878105,4684.7705175685205 L1484.704196536408,4601.688178747956 M1484.704196536408,4601.688178747956 L1457.026801444119,4518.943997718269 M1457.026801444119,4518.943997718269 L1373.3275645732936,4440.931264307874 M1373.3275645732936,4440.931264307874 L1238.8337008386789,4371.662563498684 M1238.8337008386789,4371.662563498684 L1061.1737239208676,4314.596313999666 M1061.1737239208676,4314.596313999666 L849.896371102468,4272.508536785938 M849.896371102468,4272.508536785938 L615.9689095833992,4247.404538603846 M615.9689095833992,4247.404538603846 L371.2764319762764,4240.463536400843 M371.2764319762764,4240.463536400843 L128.12933593613224,4252.009342730162 M1453.3708072850736,4753.168100279954 L1484.1022995378478,4669.76133047075 M1484.1022995378478,4669.76133047075 L1456.4434737193174,4586.693536487052 M1456.4434737193174,4586.693536487052 L1372.7932782390014,4508.375235600881 M1372.7932782390014,4508.375235600881 L1238.37550952081,4438.83484316186 M1238.37550952081,4438.83484316186 L1060.8141817721448,4381.544499526252 M1060.8141817721448,4381.544499526252 L849.6527616930123,4339.291294497583 M849.6527616930123,4339.291294497583 L615.8527375515316,4314.0885622034375 M615.8527375515316,4314.0885622034375 L371.2931252797314,4307.120252869501 M371.2931252797314,4307.120252869501 L128.27811694737983,4318.7114804971025" stroke="black"  stroke-width="4"  fill="red"/>
<path d="M-705.9599173124432,4492.712241601288 L-706.5721648608783,4424.990640303492 M-637.1305452654726,4498.832490005682 L-637.7049918722487,4431.086866702346 M-705.9599173124432,4492.712241601288 L-637.1305452654726,4498.832490005682 M-706.5721648608783,4424.990640303492 L-637.7049918722487,4431.086866702346 M688.7050675976614,4946.27390373055 L688.8682261710057,4876.779452402399 M-637.1305452654726,4498.832490005682 L-679.1553441581477,4580.794229028836 M-679.1553441581477,4580.794229028836 L-663.0728476962963,4664.216879633096 M-663.0728476962963,4664.216879633096 L-588.8191502256693,4744.563032521637 M-588.8191502256693,4744.563032521637 L-459.61261347639265,4817.324304014751 M-459.61261347639265,4817.324304014751 L-281.95582414205194,4878.299787436199 M-281.95582414205194,4878.299787436199 L-65.39495132363487,4923.88183181649 M-65.39495132363487,4923.88183181649 L177.97987801382527,4951.321276914805 M177.97987801382527,4951.321276914805 L434.273244948032,4958.941472604348 M434.273244948032,4958.941472604348 L688.7050675976614,4946.27390373055 M-637.7049918722487,4431.086866702346 L-679.7562597056206,4512.727168081613 M-679.7562597056206,4512.727168081613 L-663.6680711681822,4595.82315347426 M-663.6680711681822,4595.82315347426 L-589.3757865169425,4675.855166669407 M-589.3757865169425,4675.855166669407 L-460.0989553598108,4748.332359273657 M-460.0989553598108,4748.332359273657 L-282.34341430702966,4809.070075202412 M-282.34341430702966,4809.070075202412 L-65.66060312897667,4854.474553863986 M-65.66060312897667,4854.474553863986 L177.85231820558175,4881.807180966306 M177.85231820558175,4881.807180966306 L434.2916096580025,4889.397721997224 M434.2916096580025,4889.397721997224 L688.8682261710057,4876.779452402399 M708.2925048416203,4970.532669459792 L708.4670829788517,4900.943818795451 M688.7050675976614,4946.27390373055 L708.2925048416203,4970.532669459792 M688.8682261710057,4876.779452402399 L708.4670829788517,4900.943818795451 M708.4670829788517,4900.943818795451 L436.4977828303314,4914.446018473593 M436.4977828303314,4914.446018473593 L162.52930570452915,4906.323566429823 M162.52930570452915,4906.323566429823 L-97.56795499594023,4877.080120722691 M-97.56795499594023,4877.080120722691 L-328.8873511364967,4828.516940641942 M-328.8873511364967,4828.516940641942 L-518.4858071069591,4763.5841935818 M-518.4858071069591,4763.5841935818 L-656.1802789543578,4686.14656856476 M-656.1802789543578,4686.14656856476 L-735.0782012926372,4600.694410470348 M-735.0782012926372,4600.694410470348 L-751.8227374259284,4512.034399058064 M-751.8227374259284,4512.034399058064 L-706.5721648608783,4424.990640303492 M-705.9599173124432,4492.712241601288 L-751.1818194378354,4580.0987344697405 M-751.1818194378354,4580.0987344697405 L-734.4428903133569,4669.107270642495 M-734.4428903133569,4669.107270642495 L-655.5857355718908,4754.894795763866 M-655.5857355718908,4754.894795763866 L-517.966013878209,4832.635869597065 M-517.966013878209,4832.635869597065 L-328.47288043264257,4897.822723348624 M-328.47288043264257,4897.822723348624 L-97.28376587254985,4946.575746891113 M-97.28376587254985,4946.575746891113 L162.6657995356898,4975.933427504665 M162.6657995356898,4975.933427504665 L436.47813055028917,4984.08759745596 M436.47813055028917,4984.08759745596 L708.2925048416203,4970.532669459792" stroke="black"  stroke-width="4"  fill="red"/>
<path d="M1154.8418145842263,4341.413431729105 L1155.2536359732408,4274.286545319727 M1204.152001691981,4325.049795429311 L1204.5903184604108,4257.987329859561 M1154.8418145842263,4341.413431729105 L1204.152001691981,4325.049795429311 M1155.2536359732408,4274.286545319727 L1204.5903184604108,4257.987329859561 M708.2925048416203,4970.532669459792 L708.4670829788517,4900.943818795451 M1204.152001691981,4325.049795429311 L1371.8780658184157,4392.717511284389 M1371.8780658184157,4392.717511284389 L1489.3732808930433,4471.666271500875 M1489.3732808930433,4471.666271500875 L1549.6690991119483,4557.914475327213 M1549.6690991119483,4557.914475327213 L1548.5685995099723,4646.9660343465375 M1548.5685995099723,4646.9660343465375 L1485.065837972601,4734.016817260929 M1485.065837972601,4734.016817260929 L1361.626894816922,4814.209838362389 M1361.626894816922,4814.209838362389 L1184.2696086176531,4882.928747764368 M1184.2696086176531,4882.928747764368 L962.3877699396787,4936.108282746927 M962.3877699396787,4936.108282746927 L708.2925048416203,4970.532669459792 M1204.5903184604108,4257.987329859561 L1372.4104339458531,4325.388775753389 M1372.4104339458531,4325.388775753389 L1489.9732809830118,4404.027296536696 M1489.9732809830118,4404.027296536696 L1550.3059871867204,4489.937095056072 M1550.3059871867204,4489.937095056072 L1549.2086073018022,4578.639817277578 M1549.2086073018022,4578.639817277578 L1485.6738425799067,4665.350158527873 M1485.6738425799067,4665.350158527873 L1362.1684136381668,4745.230045413516 M1362.1684136381668,4745.230045413516 L1184.713005156382,4813.680996432243 M1184.713005156382,4813.680996432243 L962.7064857225694,4866.653402132257 M962.7064857225694,4866.653402132257 L708.4670829788517,4900.943818795451 M688.7050675976614,4946.27390373055 L688.8682261710057,4876.779452402399 M708.2925048416203,4970.532669459792 L688.7050675976614,4946.27390373055 M708.4670829788517,4900.943818795451 L688.8682261710057,4876.779452402399 M688.7050675976614,4946.27390373055 L926.6231398160157,4914.096721660907 M926.6231398160157,4914.096721660907 L1134.503024960191,4864.370887685866 M1134.503024960191,4864.370887685866 L1300.8298822918987,4800.082767465421 M1300.8298822918987,4800.082767465421 L1416.7816920378662,4725.014519758711 M1416.7816920378662,4725.014519758711 L1476.664329883641,4643.470837074812 M1476.664329883641,4643.470837074812 L1478.088903166679,4559.992674414054 M1478.088903166679,4559.992674414054 L1421.9148443935528,4479.084227425148 M1421.9148443935528,4479.084227425148 L1312.0039663063237,4404.973070104416 M1312.0039663063237,4404.973070104416 L1154.8418145842263,4341.413431729105 M688.8682261710057,4876.779452402399 L926.9210916927727,4844.727549049444 M926.9210916927727,4844.727549049444 L1134.9177155854782,4795.195465897078 M1134.9177155854782,4795.195465897078 L1301.3366281877234,4731.158103338917 M1301.3366281877234,4731.158103338917 L1417.351028811878,4656.383042011898 M1417.351028811878,4656.383042011898 L1477.2640627725752,4575.158300673794 M1477.2640627725752,4575.158300673794 L1478.686149078201,4492.007146752956 M1478.686149078201,4492.007146752956 L1422.4778970017692,4411.416125940094 M1422.4778970017692,4411.416125940094 L1312.5038757793939,4337.596145029482 M1312.5038757793939,4337.596145029482 L1155.2536359732408,4274.286545319727" stroke="black"  stroke-width="4"  fill="red"/>
<path d="M-637.1305452654726,4498.832490005682 L-637.7049918722487,4431.086866702346 M-705.9599173124432,4492.712241601288 L-706.5721648608783,4424.990640303492 M-637.1305452654726,4498.832490005682 L-705.9599173124432,4492.712241601288 M-637.7049918722487,4431.086866702346 L-706.5721648608783,4424.990640303492 M1204.152001691981,4325.049795429311 L1204.5903184604108,4257.987329859561 M-705.9599173124432,4492.712241601288 L-602.2114575266962,4411.542211087051 M-602.2114575266962,4411.542211087051 L-446.2565431348961,4340.715387878503 M-446.2565431348961,4340.715387878503 L-246.81786809273478,4283.722920139975 M-246.81786809273478,4283.722920139975 L-14.495575317671921,4243.300341521181 M-14.495575317671921,4243.300341521181 L238.76549493879546,4221.348394457669 M238.76549493879546,4221.348394457669 L500.19762508050127,4218.885595945625 M500.19762508050127,4218.885595945625 L756.7193257387087,4236.025618027628 M756.7193257387087,4236.025618027628 L995.4371076125701,4271.9748657726095 M995.4371076125701,4271.9748657726095 L1204.152001691981,4325.049795429311 M-706.5721648608783,4424.990640303492 L-602.7633981353467,4344.1394602796445 M-602.7633981353467,4344.1394602796445 L-446.7205744863644,4273.59124915073 M-446.7205744863644,4273.59124915073 L-247.1714513213169,4216.823238133493 M-247.1714513213169,4216.823238133493 L-14.721942101282366,4176.560001311926 M-14.721942101282366,4176.560001311926 L238.67689668791212,4154.694636449539 M238.67689668791212,4154.694636449539 L500.25088656113803,4152.241553819385 M500.25088656113803,4152.241553819385 L756.9119901260267,4169.313966677703 M756.9119901260267,4169.313966677703 L995.7602218258919,4205.121481178998 M995.7602218258919,4205.121481178998 L1204.5903184604108,4257.987329859561 M1154.8418145842263,4341.413431729105 L1155.2536359732408,4274.286545319727 M1204.152001691981,4325.049795429311 L1154.8418145842263,4341.413431729105 M1204.5903184604108,4257.987329859561 L1155.2536359732408,4274.286545319727 M1154.8418145842263,4341.413431729105 L959.0790678202993,4291.535938660376 M959.0790678202993,4291.535938660376 L735.0367887600378,4257.740049351511 M735.0367887600378,4257.740049351511 L494.2031315143846,4241.623193750978 M494.2031315143846,4241.623193750978 L248.73699604777815,4243.939103274837 M248.73699604777815,4243.939103274837 L10.979057231710442,4264.5798111595395 M10.979057231710442,4264.5798111595395 L-207.03333531771852,4302.578101512261 M-207.03333531771852,4302.578101512261 L-394.0568790528091,4356.13111362202 M-394.0568790528091,4356.13111362202 L-540.1409466508662,4422.6486428044955 M-540.1409466508662,4422.6486428044955 L-637.1305452654726,4498.832490005682 M1155.2536359732408,4274.286545319727 L959.3827828682643,4224.605472216937 M959.3827828682643,4224.605472216937 L735.2179394822808,4190.942775599324 M735.2179394822808,4190.942775599324 L494.2532171368303,4174.889467260098 M494.2532171368303,4174.889467260098 L248.65368239862354,4177.1962442057775 M248.65368239862354,4177.1962442057775 L10.766230894236799,4197.755574574331 M10.766230894236799,4197.755574574331 L-207.36565801761492,4235.604134903166 M-207.36565801761492,4235.604134903166 L-394.4928045035879,4288.946302852628 M-394.4928045035879,4288.946302852628 L-540.6591551213974,4355.202235630366 M-540.6591551213974,4355.202235630366 L-637.7049918722487,4431.086866702346" stroke="black"  stroke-width="4"  fill="red"/>
<path d="M1208.6366365225003,4390.398224338006 L1265.1677184543453,-4206.1884016924905 M-433.9561664293012,4937.929158655274 L-494.8365025585829,-3954.7592272620714 M1208.6366365225003,4390.398224338006 L1382.8572978003288,4461.623211089775 M1382.8572978003288,4461.623211089775 L1502.2937098043476,4544.9812279287635 M1502.2937098043476,4544.9812279287635 L1559.2630901674288,4635.9331439914295 M1559.2630901674288,4635.9331439914295 L1549.3619780245435,4729.35164745334 M1549.3619780245435,4729.35164745334 L1471.9635511938227,4819.778646575313 M1471.9635511938227,4819.778646575313 L1330.530872196199,4901.743718021942 M1330.530872196199,4901.743718021942 L1132.665295266124,4970.1276984840715 M1132.665295266124,4970.1276984840715 L889.8227763441241,5020.541657022382 M889.8227763441241,5020.541657022382 L616.6705763727987,5049.680721473546 M616.6705763727987,5049.680721473546 L330.1095968283212,5055.607779380556 M330.1095968283212,5055.607779380556 L48.04663504865346,5037.92633420978 M48.04663504865346,5037.92633420978 L-211.95011081184805,4997.816667040153 M-211.95011081184805,4997.816667040153 L-433.9561664293012,4937.929158655274 M1265.1677184543453,-4206.1884016924905 L1451.9473862516834,-4173.5541690520095 M1451.9473862516834,-4173.5541690520095 L1580.2551249340634,-4135.333211166377 M1580.2551249340634,-4135.333211166377 L1641.7873715630642,-4093.596395724706 M1641.7873715630642,-4093.596395724706 L1631.716476692714,-4050.690777099786 M1631.716476692714,-4050.690777099786 L1549.24695402396,-4009.1234325888454 M1549.24695402396,-4009.1234325888454 L1397.979715258492,-3971.415493608074 M1397.979715258492,-3971.415493608074 L1185.9911908805373,-3939.933404322657 M1185.9911908805373,-3939.933404322657 L925.5479988289296,-3916.7113201843003 M925.5479988289296,-3916.7113201843003 L632.4218371363704,-3903.2840548437143 M632.4218371363704,-3903.2840548437143 L324.8293970717863,-3900.5524217445163 M324.8293970717863,-3900.5524217445163 L22.09023251210533,-3908.700910634381 M22.09023251210533,-3908.700910634381 L-256.84746442707205,-3927.1804437202545 M-256.84746442707205,-3927.1804437202545 L-494.8365025585829,-3954.7592272620714 M-433.9561664293012,4937.929158655274 L-604.8071770353934,4862.151558069355 M-604.8071770353934,4862.151558069355 L-714.91678790079,4775.284801566966 M-714.91678790079,4775.284801566966 L-758.7392031806155,4682.670910569073 M-758.7392031806155,4682.670910569073 L-734.8806992154277,4589.817322403227 M-734.8806992154277,4589.817322403227 L-645.9092292917492,4502.052934882988 M-645.9092292917492,4502.052934882988 L-497.93811854720457,4424.239063588766 M-497.93811854720457,4424.239063588766 L-300.0681702898895,4360.544643592355 M-300.0681702898895,4360.544643592355 L-63.75911672009897,4314.28428506618 M-63.75911672009897,4314.28428506618 L197.81693996964145,4287.810557630244 M197.81693996964145,4287.810557630244 L470.41203908215573,4282.44911438901 M470.41203908215573,4282.44911438901 L739.3214918068318,4298.466650632093 M739.3214918068318,4298.466650632093 L989.9924903404224,4335.06468314518 M989.9924903404224,4335.06468314518 L1208.6366365225003,4390.398224338006 M-494.8365025585829,-3954.7592272620714 L-677.7471082072113,-3989.633429143505 M-677.7471082072113,-3989.633429143505 L-795.3474634087497,-4029.5806837955224 M-795.3474634087497,-4029.5806837955224 L-841.7873715630642,-4072.1351689688418 M-841.7873715630642,-4072.1351689688418 L-815.6939223728521,-4114.762858198868 M-815.6939223728521,-4114.762858198868 L-719.9386526983201,-4155.020219449909 M-719.9386526983201,-4155.020219449909 L-561.1647839904865,-4190.685734410117 M-561.1647839904865,-4190.685734410117 L-349.1704984867881,-4219.860423405351 M-349.1704984867881,-4219.860423405351 L-96.22739099132366,-4241.038728001404 M-96.22739099132366,-4241.038728001404 L183.60893784801564,-4253.154470593723 M183.60893784801564,-4253.154470593723 L475.1676361555353,-4255.607779380556 M475.1676361555353,-4255.607779380556 L762.8058377101315,-4248.278052585103 M762.8058377101315,-4248.278052585103 L1031.0375400241253,-4231.526451440357 M1031.0375400241253,-4231.526451440357 L1265.1677184543453,-4206.1884016924905 M-428.6696898967625,4936.166999811094 L-489.15769999596,-3955.5704847710167 M1203.7141634353065,4392.039048700404 L1259.9068163303832,-4205.436844246211 M-428.6696898967625,4936.166999811094 L-598.4711270305211,4860.874808411996 M-598.4711270305211,4860.874808411996 L-707.9269119837331,4774.558759989769 M-707.9269119837331,4774.558759989769 L-751.5184572808714,4682.525329097787 M-751.5184572808714,4682.525329097787 L-727.8509862781129,4590.246733354111 M-727.8509862781129,4590.246733354111 L-639.4667319820026,4503.019450068068 M-639.4667319820026,4503.019450068068 L-492.4335894964929,4425.676569255989 M-492.4335894964929,4425.676569255989 L-295.7919351896667,4362.3640497897595 M-295.7919351896667,4362.3640497897595 L-60.93082323625879,4316.379012416825 M-60.93082323625879,4316.379012416825 L199.0547380458903,4290.06205703011 M199.0547380458903,4290.06205703011 L469.9977460120023,4284.732303705943 M469.9977460120023,4284.732303705943 L737.2756369841022,4300.655119296822 M737.2756369841022,4300.655119296822 L986.4175208630916,4337.035938025261 M986.4175208630916,4337.035938025261 L1203.7141634353065,4392.039048700404 M-489.15769999596,-3955.5704847710167 L-670.9456444377745,-3990.220800495048 M-670.9456444377745,-3990.220800495048 L-787.8502160388689,-4029.9144305732952 M-787.8502160388689,-4029.9144305732952 L-834.0491723423888,-4072.202032170184 M-834.0491723423888,-4072.202032170184 L-808.1669540187731,-4114.565807114681 M-808.1669540187731,-4114.565807114681 L-713.046068147155,-4154.577060265687 M-713.046068147155,-4154.577060265687 L-555.2799569260551,-4190.027097118789 M-555.2799569260551,-4190.027097118789 L-344.6015327738228,-4219.027300240214 M-344.6015327738228,-4219.027300240214 L-93.20678529274437,-4240.079945102463 M-93.20678529274437,-4240.079945102463 L184.9305757786244,-4252.124184715947 M184.9305757786244,-4252.124184715947 L474.72530383810846,-4254.563044260116 M474.72530383810846,-4254.563044260116 L760.6211945008704,-4247.276510375326 M760.6211945008704,-4247.276510375326 L1027.2187499434779,-4230.62400913031 M1027.2187499434779,-4230.62400913031 L1259.9068163303832,-4205.436844246211 M1203.7141634353065,4392.039048700404 L1376.8434580557662,4462.8350333461 M1376.8434580557662,4462.8350333461 L1495.5105026300466,4545.685802687591 M1495.5105026300466,4545.685802687591 L1552.0861908019879,4636.077841417734 M1552.0861908019879,4636.077841417734 L1542.2032654479094,4728.914356512238 M1542.2032654479094,4728.914356512238 L1465.2487079103355,4818.771273643664 M1465.2487079103355,4818.771273643664 L1324.6729724131303,4900.213929656149 M1324.6729724131303,4900.213929656149 L1128.0355818029193,4968.157898249983 M1128.0355818029193,4968.157898249983 L886.7219069728847,5018.245050518452 M886.7219069728847,5018.245050518452 L615.3036250773437,5047.194299071185 M615.3036250773437,5047.194299071185 L330.5677918578882,5053.082653062658 M330.5677918578882,5053.082653062658 L50.29937516579366,5035.516559015607 M50.29937516579366,5035.516559015607 L-208.05274047057026,4995.667639474251 M-208.05274047057026,4995.667639474251 L-428.6696898967625,4936.166999811094 M1259.9068163303832,-4205.436844246211 L1445.5158253466013,-4172.998742455504 M1445.5158253466013,-4172.998742455504 L1572.9951287980252,-4135.010025863687 M1572.9951287980252,-4135.010025863687 L1634.0995064086521,-4093.5299674583293 M1634.0995064086521,-4093.5299674583293 L1624.041421112316,-4050.8917050250293 M1624.041421112316,-4050.8917050250293 L1542.0417174978154,-4009.5866937070423 M1542.0417174978154,-4009.5866937070423 L1391.6892039676272,-3972.119535624028 M1391.6892039676272,-3972.119535624028 L1181.0163990843616,-3940.8405273570534 M1181.0163990843616,-3940.8405273570534 L922.2144381299884,-3917.769439650865 M922.2144381299884,-3917.769439650865 L630.9519095616934,-3904.4299397926434 M630.9519095616934,-3904.4299397926434 L325.3221365055769,-3901.716207976797 M325.3221365055769,-3901.716207976797 L24.51241236952177,-3909.811350478253 M24.51241236952177,-3909.811350478253 L-252.65852026715902,-3928.1703591450914 M-252.65852026715902,-3928.1703591450914 L-489.15769999596,-3955.5704847710167" stroke="black"  stroke-width="4"  fill="red"/></svg>