<svg viewBox="0 0 800 800" xmlns="http://www.w3.org/2000/svg"><path d="M485.3376708055199,-6.429277529204796 L485.3400479686318,-12.609445827770173 M485.3400479686318,-12.609445827770173 L503.2948116784164,0.520919218781728 M503.2948116784164,0.520919218781728 L515.2524860951539,15.73550743893884 M515.2524860951539,15.73550743893884 L520.5160798599521,32.151434658285666 M520.5160798599521,32.151434658285666 L518.776772341205,48.81530796569041 M518.776772341205,48.81530796569041 L510.13255839811393,64.75846466842131 M510.13255839811393,64.75846466842131 L495.08324119220464,79.05333881829392 M495.08324119220464,79.05333881829392 L474.5019801745743,90.86757725614257 M474.5019801745743,90.86757725614257 L449.5848771881353,99.51279318825789 M449.5848771881353,99.51279318825789 L421.78147968878375,104.48497422323021 M421.78147968878375,104.48497422323021 L392.71017582887924,105.49413876766994 M392.71017582887924,105.49413876766994 L364.0635904380092,102.48141868796881 M364.0635904380092,102.48141868796881 L337.50946514727923,95.62254206628279 M337.50946514727923,95.62254206628279 L314.5931059815714,85.31745704647994 M314.5931059815714,85.31745704647994 L296.64706356220785,72.16679874097724 M296.64706356220785,72.16679874097724 L284.71355507186735,56.93656620221907 M284.71355507186735,56.93656620221907 L279.48403573253216,40.513227532217456 M279.48403573253216,40.513227532217456 L281.25952015204246,23.851873511891654 M281.25952015204246,23.851873511891654 L289.9337257707503,7.920589695297508 M289.9337257707503,7.920589695297508 L304.9999787098832,-6.355777897843041 M304.9999787098832,-6.355777897843041 L325.5812397345493,-18.149115740363754 M325.5812397345493,-18.149115740363754 L350.48140699575845,-26.775825110671576 M350.48140699575845,-26.775825110671576 L378.25481281450317,-31.736133248669148 M378.25481281450317,-31.736133248669148 L407.2899397599819,-32.742778500242025 M407.2899397599819,-32.742778500242025 L435.90245071485606,-29.737469880134768 M435.90245071485606,-29.737469880134768 L462.4324100808853,-22.894237581000084 M462.4324100808853,-22.894237581000084 L485.3400479686318,-12.609445827770173 M485.3376708055199,-6.429277529204796 L462.430671212042,-16.714361918559348 M462.430671212042,-16.714361918559348 L435.9014508763645,-23.55778895989249 M435.9014508763645,-23.55778895989249 L407.2897368529451,-26.56318311148334 M407.2897368529451,-26.56318311148334 L378.2554185876264,-25.556509210141826 M378.2554185876264,-25.556509210141826 L350.4827863719811,-20.596059906109076 M350.4827863719811,-20.596059906109076 L325.58331282080934,-11.969105056940748 M325.58331282080934,-11.969105056940748 L305.0026253776907,-0.17543168812471777 M305.0026253776907,-0.17543168812471777 L289.9367925574636,14.10134198027049 M289.9367925574636,14.10134198027049 L281.26282909887396,30.033078822205766 M281.26282909887396,30.033078822205766 L279.4873946645831,46.694906490471 M279.4873946645831,46.694906490471 L284.7167687367974,63.118711904212546 M284.7167687367974,63.118711904212546 L296.6499449877984,78.34937715682008 M296.6499449877984,78.34937715682008 L314.5954873884923,91.50040899760461 M314.5954873884923,91.50040899760461 L337.51120777382914,101.80578666481256 M337.51120777382914,101.80578666481256 L364.06459268725956,108.66485803739295 M364.06459268725956,108.66485803739295 L392.710379247451,111.6776636526979 M392.710379247451,111.6776636526979 L421.78087241078475,110.66847045708892 M421.78087241078475,110.66847045708892 L449.5834946353758,105.6961482494819 M449.5834946353758,105.6961482494819 L474.499902967823,97.05068682821832 M474.499902967823,97.05068682821832 L495.0805904039065,85.23611285245613 M495.0805904039065,85.23611285245613 L510.12948843486555,70.94083261704088 M510.12948843486555,70.94083261704088 L518.7734618894989,54.997222882368874 M518.7734618894989,54.997222882368874 L520.5127214394358,38.332875925624194 M520.5127214394358,38.332875925624194 L515.2492748409811,21.916481966657443 M515.2492748409811,21.916481966657443 L503.2919340105311,6.701461041347557 M503.2919340105311,6.701461041347557 L485.3376708055199,-6.429277529204796 M318.6007439764427,89.2031821830717 L301.49620493340825,76.66905805269926 M301.49620493340825,76.66905805269926 L290.1218538760197,62.15268009412796 M290.1218538760197,62.15268009412796 L285.13684737935756,46.49890668725482 M285.13684737935756,46.49890668725482 L286.8282481095314,30.618047386478793 M286.8282481095314,30.618047386478793 L295.0949492277147,15.432841303609507 M295.0949492277147,15.432841303609507 L309.4541948192487,1.8248814192660348 M309.4541948192487,1.8248814192660348 L329.07016314312847,-9.416429946222252 M329.07016314312847,-9.416429946222252 L352.8028467101535,-17.639409844559964 M352.8028467101535,-17.639409844559964 L379.27431358341045,-22.36760234930091 M379.27431358341045,-22.36760234930091 L406.9484527614153,-23.327143311416762 M406.9484527614153,-23.327143311416762 L434.2197520740568,-20.462462975263634 M434.2197520740568,-20.462462975263634 L459.50595436653,-13.939471522874214 M459.50595436653,-13.939471522874214 L481.33938458336314,-4.136048588680069 M481.33938458336314,-4.136048588680069 L498.45184601878645,8.379640175418558 M498.45184601878645,8.379640175418558 L509.8481493206654,22.88180608829748 M509.8481493206654,22.88180608829748 L514.8641089098439,38.528846579805645 M514.8641089098439,38.528846579805645 L513.2055711514486,54.41199452075591 M513.2055711514486,54.41199452075591 L504.966114379175,69.6079865040308 M504.966114379175,69.6079865040308 L490.6222531436041,83.23275862523167 M490.6222531436041,83.23275862523167 L471.0062848255301,94.49305708952784 M471.0062848255301,94.49305708952784 L447.2582169091383,102.73284923356618 M447.2582169091383,102.73284923356618 L420.7595056858539,107.47182764335889 M420.7595056858539,107.47182764335889 L393.0525035247964,108.4336572482498 M393.0525035247964,108.4336572482498 L365.750251110947,105.56224399153575 M365.750251110947,105.56224399153575 L340.4420965753832,99.02504048757328 M340.4420965753832,99.02504048757328 L318.6007439764427,89.2031821830717 M318.6007439764427,89.2031821830717 L318.59847429289766,83.02029547489201 M318.59847429289766,83.02029547489201 L340.44043571856514,92.84187485009227 M340.44043571856514,92.84187485009227 L365.74929589610997,99.37889273225358 M365.74929589610997,99.37889273225358 L393.05230965292503,102.25022446296396 M393.05230965292503,102.25022446296396 L420.76008446395406,101.28842216615408 M420.76008446395406,101.28842216615408 L447.2595345838037,96.54957831137995 M447.2595345838037,96.54957831137995 L471.00826457103256,88.31002014899673 M471.00826457103256,88.31002014899673 L490.62477958405447,77.0500414940359 M490.62477958405447,77.0500414940359 L504.96904036692666,63.42565642281181 M504.96904036692666,63.42565642281181 L513.2087263921225,48.23009623558619 M513.2087263921225,48.23009623558619 L514.8673099157825,32.34739974159038 M514.8673099157825,32.34739974159038 L509.8512101011406,16.70080411136223 M509.8512101011406,16.70080411136223 L498.4545888798137,2.19905062078044 M498.4545888798137,2.19905062078044 L481.3416504116316,-10.316282127968066 M481.3416504116316,-10.316282127968066 L459.50761180967,-20.119426143108626 M459.50761180967,-20.119426143108626 L434.22070509884685,-26.642231981596865 M434.22070509884685,-26.642231981596865 L406.94864616858416,-29.506830795489122 M406.94864616858416,-29.506830795489122 L379.2737361724104,-28.547317140182145 M379.2737361724104,-28.547317140182145 L352.8015319212044,-23.81925918446416 M352.8015319212044,-23.81925918446416 L329.06818714087495,-15.59651325843572 M329.06818714087495,-15.59651325843572 L309.45167212204655,-4.355521691727972 M309.45167212204655,-4.355521691727972 L295.09202612567805,9.252051151984233 M295.09202612567805,9.252051151984233 L286.8250942359566,24.43682544480066 M286.8250942359566,24.43682544480066 L285.13364590871686,40.31723329989427 M285.13364590871686,40.31723329989427 L290.1187909054987,55.97056184174471 M290.1187909054987,55.97056184174471 L301.49345865870424,70.48652737011855 M301.49345865870424,70.48652737011855 L318.59847429289766,83.02029547489201" stroke="black"  stroke-width="4"  fill="red"/>
<path d="M485.0580923720884,720.4210436281901 L485.06045398379996,714.2813059885276 M485.06045398379996,714.2813059885276 L502.9563501254809,727.4553211666758 M502.9563501254809,727.4553211666758 L514.8747894226838,742.7204753211566 M514.8747894226838,742.7204753211566 L520.121074180178,759.1909455927043 M520.121074180178,759.1909455927043 L518.387408777242,775.9101692600397 M518.387408777242,775.9101692600397 L509.7714804022123,791.9062668356447 M509.7714804022123,791.9062668356447 L494.7714651728138,806.2485956222114 M494.7714651728138,806.2485956222114 L474.25766680319305,818.1020445015611 M474.25766680319305,818.1020445015611 L449.4222664903201,826.7759478643281 M449.4222664903201,826.7759478643281 L421.7100539265678,831.764626065804 M421.7100539265678,831.764626065804 L392.7341011581797,832.7771387298083 M392.7341011581797,832.7771387298083 L364.1814712454849,829.7544231250539 M364.1814712454849,829.7544231250539 L337.714426404636,822.8727882713101 M337.714426404636,822.8727882713101 L314.8731982971303,812.5335049614621 M314.8731982971303,812.5335049614621 L296.98596636503186,799.3391958533131 M296.98596636503186,799.3391958533131 L285.09153482836444,784.0583968628941 M285.09153482836444,784.0583968628941 L279.8791014794392,767.5805148955998 M279.8791014794392,767.5805148955998 L281.64870700556526,750.863810598655 M281.64870700556526,750.863810598655 L290.2944307608753,734.879586301812 M290.2944307608753,734.879586301812 L305.31127087919,720.5557646839559 M305.31127087919,720.5557646839559 L325.8250692557547,708.7232170910546 M325.8250692557547,708.7232170910546 L350.6436446876008,700.0678209020302 M350.6436446876008,700.0678209020302 L378.326061866148,695.0910159901056 M378.326061866148,695.0910159901056 L407.2660744978616,694.0810227022674 M407.2660744978616,694.0810227022674 L435.7848529915921,697.0963266023705 M435.7848529915921,697.0963266023705 L462.22789007357954,703.962316616278 M462.22789007357954,703.962316616278 L485.06045398379996,714.2813059885276 M485.0580923720884,720.4210436281901 L462.2261625793549,710.1017673040436 M462.2261625793549,710.1017673040436 L435.7838596930278,703.2355863300736 M435.7838596930278,703.2355863300736 L407.26587291800035,700.2201985594679 M407.26587291800035,700.2201985594679 L378.3266636769909,701.2302199407196 M378.3266636769909,701.2302199407196 L350.6450150411037,706.2071632772038 M350.6450150411037,706.2071632772038 L325.8271287805663,714.8628001772555 M325.8271287805663,714.8628001772555 L305.31390023151596,726.6956767784753 M305.31390023151596,726.6956767784753 L290.29747748093666,741.0198965812773 M290.29747748093666,741.0198965812773 L281.65199429811184,757.0045650985038 M281.65199429811184,757.0045650985038 L279.88243842677457,773.7217338349276 M279.88243842677457,773.7217338349276 L285.0947274562435,790.2000734690446 M285.0947274562435,790.2000734690446 L296.9888289258488,805.4812967558024 M296.9888289258488,805.4812967558024 L314.8755641110562,818.6759721310686 M314.8755641110562,818.6759721310686 L337.7161576197369,829.0155423928595 M337.7161576197369,829.0155423928595 L364.18246693117936,835.8973682067015 M364.18246693117936,835.8973682067015 L392.7343032445623,838.9201676819753 M392.7343032445623,838.9201676819753 L421.7094506255989,837.9076269245519 M421.7094506255989,837.9076269245519 L449.4208929914146,832.9188102984893 M449.4208929914146,832.9188102984893 L474.2556031982762,824.2446662246527 M474.2556031982762,824.2446662246527 L494.76883174038335,812.3908883369364 M494.76883174038335,812.3908883369364 L509.7684305367499,798.0481613653814 M509.7684305367499,798.0481613653814 L518.3841199945705,782.0516195693656 M518.3841199945705,782.0516195693656 L520.1177377393635,765.3319314625452 M520.1177377393635,765.3319314625452 L514.8715991819333,748.8610035241921 M514.8715991819333,748.8610035241921 L502.9534912855389,733.5954250734084 M502.9534912855389,733.5954250734084 L485.0580923720884,720.4210436281901 M318.8676809568958,816.3711223954862 L301.819193816686,803.7954005318725 M301.819193816686,803.7954005318725 L290.48208945585395,789.2308344578686 M290.48208945585395,789.2308344578686 L285.51337211837426,773.5250831290458 M285.51337211837426,773.5250831290458 L287.19917513827835,757.5914768756503 M287.19917513827835,757.5914768756503 L295.4387353761167,742.355820266264 M295.4387353761167,742.355820266264 L309.7508894604573,728.7026382804233 M309.7508894604573,728.7026382804233 L329.3025610216891,717.4239613164051 M329.3025610216891,717.4239613164051 L352.95747924542167,709.1736438201402 M352.95747924542167,709.1736438201402 L379.3422229916907,704.4297304322563 M379.3422229916907,704.4297304322563 L406.9257061099491,703.4669989054282 M406.9257061099491,703.4669989054282 L434.1076666689577,706.3412044119661 M434.1076666689577,706.3412044119661 L459.31102223963626,712.8858832235202 M459.31102223963626,712.8858832235202 L481.0729002722934,722.7218953597793 M481.0729002722934,722.7218953597793 L498.1292579542828,735.2791812577083 M498.1292579542828,735.2791812577083 L509.48817088626754,749.8295348239128 M509.48817088626754,749.8295348239128 L514.4876387340927,765.5285530184443 M514.4876387340927,765.5285530184443 L512.8344836040019,781.4644479864314 M512.8344836040019,781.4644479864314 L504.6219894029401,796.7108908469326 M504.6219894029401,796.7108908469326 L490.3251189868097,810.3808856162756 M490.3251189868097,810.3808856162756 L470.773447431308,821.6785502964416 M470.773447431308,821.6785502964416 L447.1032455458754,829.9456805850164 M447.1032455458754,829.9456805850164 L420.691435758766,834.7003802286207 M420.691435758766,834.7003802286207 L393.07530473956706,835.6654004726306 M393.07530473956706,835.6654004726306 L365.86259366163495,832.7844618266346 M365.86259366163495,832.7844618266346 L340.637429521185,826.2255705014436 M340.637429521185,826.2255705014436 L318.8676809568958,816.3711223954862 M318.8676809568958,816.3711223954862 L318.86542613449336,810.2287191992191 M318.86542613449336,810.2287191992191 L340.63577954007957,820.0828938041107 M340.63577954007957,820.0828938041107 L365.86164470215783,826.6416031204104 M365.86164470215783,826.6416031204104 L393.0751121373262,829.5224618273438 M393.0751121373262,829.5224618273438 L420.69201074659,828.5574683598414 M420.69201074659,828.5574683598414 L447.10455459178246,823.8029006521693 M447.10455459178246,823.8029006521693 L470.77541421346587,815.535999791372 M470.77541421346587,815.535999791372 L490.3276288858522,804.2386486973252 M490.3276288858522,804.2386486973252 L504.6248962356853,790.5690334479746 M504.6248962356853,790.5690334479746 L512.8376181917067,775.3230139851769 M512.8376181917067,775.3230139851769 L514.4908187905161,759.3875616860336 M514.4908187905161,759.3875616860336 L509.491211637797,743.688979705164 M509.491211637797,743.688979705164 L498.13198286910495,729.1390305463784 M498.13198286910495,729.1390305463784 L481.0751512772058,716.5820937467865 M481.0751512772058,716.5820937467865 L459.3126688405221,706.7463551115515 M459.3126688405221,706.7463551115515 L434.1086134598531,700.2018583088562 M434.1086134598531,700.2018583088562 L406.92589825204215,697.3277327413656 M406.92589825204215,697.3277327413656 L379.34164935756735,698.2904374916914 M379.34164935756735,698.2904374916914 L352.95617305694725,703.0342189436676 M352.95617305694725,703.0342189436676 L329.30059794609156,711.2843070121936 M329.30059794609156,711.2843070121936 L309.74838326797436,722.5626703901361 M309.74838326797436,722.5626703901361 L295.4358314008028,736.215472856023 M295.4358314008028,736.215472856023 L287.19604190427333,751.4507060677307 M287.19604190427333,751.4507060677307 L285.51019160180346,767.3838696522879 M285.51019160180346,767.3838696522879 L290.47904653574415,783.089184767433 M290.47904653574415,783.089184767433 L301.81646552164534,797.6533464339855 M301.81646552164534,797.6533464339855 L318.86542613449336,810.2287191992191" stroke="black"  stroke-width="4"  fill="red"/>
<path d="M485.589440805281,720.1142694672528 L485.87554919328915,-19.09569884992868 M314.3432672609961,818.9832938607391 L314.05664574134727,79.44044823192428 M485.589440805281,720.1142694672528 L503.5967088402497,733.3709306130722 M503.5967088402497,733.3709306130722 L515.5893848587978,748.7318674953119 M515.5893848587978,748.7318674953119 L520.868418462024,765.3057170647453 M520.868418462024,765.3057170647453 L519.1240759667008,782.1299088039923 M519.1240759667008,782.1299088039923 L510.4546344632554,798.2264683031392 M510.4546344632554,798.2264683031392 L495.36133897984064,812.6588938300295 M495.36133897984064,812.6588938300295 L474.71990216714767,824.586824012929 M474.71990216714767,824.586824012929 L449.7299251111775,833.3152410393274 M449.7299251111775,833.3152410393274 L421.84518904873863,838.3352738713456 M421.84518904873863,838.3352738713456 L392.6888379071147,839.3541524848812 M392.6888379071147,839.3541524848812 L363.95844322586555,836.3124369984679 M363.95844322586555,836.3124369984679 L337.3266478774591,829.3875478639541 M337.3266478774591,829.3875478639541 L314.3432672609961,818.9832938607391 M485.87554919328915,-19.09569884992868 L503.94305688302785,-5.8837051357820656 M503.94305688302785,-5.8837051357820656 L515.975882922709,9.42548735448247 M515.975882922709,9.42548735448247 L521.2726296364137,25.943522710992283 M521.2726296364137,25.943522710992283 L519.5225142831948,42.71107412711797 M519.5225142831948,42.71107412711797 L510.8241286474682,58.753458929214844 M510.8241286474682,58.753458929214844 L495.6803825441842,73.13732386687309 M495.6803825441842,73.13732386687309 L474.96991085274635,85.0251297840066 M474.96991085274635,85.0251297840066 L449.89632668316347,93.72419079736903 M449.89632668316347,93.72419079736903 L421.9182799637793,98.7273419906013 M421.9182799637793,98.7273419906013 L392.6643548113644,99.74279444939395 M392.6643548113644,99.74279444939395 L363.8378142787954,96.71130744049037 M363.8378142787954,96.71130744049037 L337.11690856180985,89.80970694148232 M337.11690856180985,89.80970694148232 L314.05664574134727,79.44044823192428 M314.3432672609961,818.9832938607391 L296.3447715989912,805.7060843127156 M296.3447715989912,805.7060843127156 L284.3764030187985,790.3293064259409 M284.3764030187985,790.3293064259409 L279.1316433891346,773.7479522248409 M279.1316433891346,773.7479522248409 L280.9123746364919,756.9263114465238 M280.9123746364919,756.9263114465238 L289.611983455513,740.8417741076447 M289.611983455513,740.8417741076447 L304.722313845333,726.4280878100949 M304.722313845333,726.4280878100949 L325.36375066514444,714.5213209969055 M325.36375066514444,714.5213209969055 L350.33669282279686,705.8116432099387 M350.33669282279686,705.8116432099387 L378.19126156461164,700.8036325445181 M378.19126156461164,700.8036325445181 L407.31122394037817,699.7873049016746 M407.31122394037817,699.7873049016746 L436.00734463740855,702.8215157469598 M436.00734463740855,702.8215157469598 L462.6148325491756,709.730563863832 M462.6148325491756,709.730563863832 L485.589440805281,720.1142694672528 M314.05664574134727,79.44044823192428 L295.9979692008306,66.20790680660537 M295.9979692008306,66.20790680660537 L283.9896134629966,50.88287384454702 M283.9896134629966,50.88287384454702 L278.72737036358626,34.3573341087606 M278.72737036358626,34.3573341087606 L280.51411827889393,17.592333567772585 M280.51411827889393,17.592333567772585 L289.24287335572217,1.5619705216267903 M289.24287335572217,1.5619705216267903 L304.40376850186874,-12.803155816891604 M304.40376850186874,-12.803155816891604 L325.1142402005208,-24.669799076014215 M325.1142402005208,-24.669799076014215 L350.1706753354373,-33.350121480100825 M350.1706753354373,-33.350121480100825 L378.1183526086036,-38.34125091100066 M378.1183526086036,-38.34125091100066 L407.3356451849206,-39.35415248488118 M407.3356451849206,-39.35415248488118 L436.1276820923955,-36.33016986475127 M436.1276820923955,-36.33016986475127 L462.82411750927304,-29.44440985069741 M462.82411750927304,-29.44440985069741 L485.87554919328915,-19.09569884992868 M314.8755641110557,818.6759721310683 L314.5907244418493,79.13416029544794 M485.0580923720884,720.4210436281901 L485.34242526419075,-18.789958463771313 M314.8755641110557,818.6759721310683 L296.9888289258488,805.4812967558024 M296.9888289258488,805.4812967558024 L285.0947274562435,790.2000734690446 M285.0947274562435,790.2000734690446 L279.88243842677457,773.7217338349276 M279.88243842677457,773.7217338349276 L281.65199429811184,757.0045650985038 M281.65199429811184,757.0045650985038 L290.29747748093666,741.0198965812773 M290.29747748093666,741.0198965812773 L305.31390023151596,726.6956767784753 M305.31390023151596,726.6956767784753 L325.8271287805663,714.8628001772555 M325.8271287805663,714.8628001772555 L350.6450150411037,706.2071632772038 M350.6450150411037,706.2071632772038 L378.3266636769909,701.2302199407196 M378.3266636769909,701.2302199407196 L407.26587291800035,700.2201985594679 M407.26587291800035,700.2201985594679 L435.7838596930278,703.2355863300736 M435.7838596930278,703.2355863300736 L462.2261625793549,710.1017673040436 M462.2261625793549,710.1017673040436 L485.0580923720884,720.4210436281901 M314.5907244418493,79.13416029544794 L296.64418197595023,65.98387558733248 M296.64418197595023,65.98387558733248 L284.7103412277696,50.754075834350715 M284.7103412277696,50.754075834350715 L279.4806766132425,34.331203985650404 M279.4806766132425,34.331203985650404 L281.25621102078674,17.670323691949648 M281.25621102078674,17.670323691949648 L289.93065881313436,1.739492975933672 M289.93065881313436,1.739492975933672 L304.99733189460414,-12.53646847453092 M304.99733189460414,-12.53646847453092 L325.57916653278994,-24.329470735061022 M325.57916653278994,-24.329470735061022 L350.4800275426916,-32.95593458576798 M350.4800275426916,-32.95593458576798 L378.25420700763425,-37.91610153430429 M378.25420700763425,-37.91610153430429 L407.2901426783219,-38.922718131354486 M407.2901426783219,-38.922718131354486 L435.90345060904656,-35.917495056924736 M435.90345060904656,-35.917495056924736 L462.4341490466032,-29.074457532305587 M462.4341490466032,-29.074457532305587 L485.34242526419075,-18.789958463771313 M485.0580923720884,720.4210436281901 L502.9534912855389,733.5954250734084 M502.9534912855389,733.5954250734084 L514.8715991819333,748.8610035241921 M514.8715991819333,748.8610035241921 L520.1177377393635,765.3319314625452 M520.1177377393635,765.3319314625452 L518.3841199945705,782.0516195693656 M518.3841199945705,782.0516195693656 L509.7684305367499,798.0481613653814 M509.7684305367499,798.0481613653814 L494.76883174038335,812.3908883369364 M494.76883174038335,812.3908883369364 L474.2556031982762,824.2446662246527 M474.2556031982762,824.2446662246527 L449.4208929914146,832.9188102984893 M449.4208929914146,832.9188102984893 L421.7094506255989,837.9076269245519 M421.7094506255989,837.9076269245519 L392.7343032445623,838.9201676819753 M392.7343032445623,838.9201676819753 L364.18246693117936,835.8973682067015 M364.18246693117936,835.8973682067015 L337.7161576197369,829.0155423928595 M337.7161576197369,829.0155423928595 L314.8755641110557,818.6759721310683 M485.34242526419075,-18.789958463771313 L503.29768950665465,-5.6599670032295535 M503.29768950665465,-5.6599670032295535 L515.2556975282929,9.5541884399222 M515.2556975282929,9.5541884399222 L520.5194384676645,25.96964884212332 M520.5194384676645,25.96964884212332 L518.7800829774611,42.63304842149057 M518.7800829774611,42.63304842149057 L510.13562853253063,58.57575201698626 M510.13562853253063,58.57575201698626 L495.08589212831873,72.87022001380728 M495.08589212831873,72.87022001380728 L474.5040574971695,84.68412285794761 M474.5040574971695,84.68412285794761 L449.58625981800446,93.32909326008667 M449.58625981800446,93.32909326008667 L421.78208700065426,98.30113309894159 M421.78208700065426,98.30113309894159 L392.7099723989615,99.31026898744608 M392.7099723989615,99.31026898744608 L364.0625881328585,96.29763445757737 M364.0625881328585,96.29763445757737 L337.5077224235405,89.43895261917771 M337.5077224235405,89.43895261917771 L314.5907244418493,79.13416029544794" stroke="black"  stroke-width="4"  fill="red"/></svg>